<svg width="1000" height="1000" viewBox="0 0 1000 1000" fill="none" xmlns="http://www.w3.org/2000/svg">
<g clip-path="url(#clip0_311_81)">
<path d="M901.639 520.416C901.769 644.155 860.11 763.134 785.418 852.341C780.915 857.754 776.291 863.036 771.545 868.188C764.314 876.085 756.84 883.675 749.124 890.96C676.937 959.241 586.819 997.61 493.309 999.879C490.193 999.96 487.066 1000 483.927 1000C409.35 1000 315.551 954.268 230.428 890.96C223.386 885.723 216.406 880.364 209.489 874.884C206.255 872.346 203.038 869.772 199.836 867.162C167.005 840.547 135.842 811.319 106.577 779.693C87.4163 759.047 69.4483 736.989 52.7878 713.659C-12.6179 621.033 -27.044 537.572 66.2028 520.416C77.2429 518.391 87.9577 516.227 98.3472 513.923C113.397 510.603 127.799 507.017 141.555 503.165C160.085 497.995 177.493 492.389 193.781 486.346C199.26 484.321 204.613 482.256 209.841 480.15C287.134 448.983 338.866 408.339 374.079 364.24C380.051 356.775 385.558 349.221 390.598 341.576C398.309 329.94 405.313 317.709 411.561 304.968C420.184 287.267 427.427 268.724 433.206 249.557L433.523 248.505C461.541 155.717 453.017 69.651 483.927 40.8455C616.055 -82.3003 780.551 93.0707 857.761 299.879C861.652 310.3 865.313 320.784 868.742 331.331C870.282 336.042 871.768 340.762 873.198 345.49C876.96 357.814 880.374 370.17 883.439 382.557C884.614 387.281 885.735 392.001 886.801 396.717C887.942 401.806 889.035 406.881 890.046 411.957C897.559 449.118 901.639 485.766 901.639 520.416Z" fill="#F2F2F2"/>
<path d="M493.309 999.879C490.193 999.96 487.066 1000 483.927 1000C409.35 1000 315.551 954.268 230.428 890.96C223.386 885.723 216.406 880.364 209.489 874.884L215.555 832.499L399.216 804.503L491.393 885.426L493.309 999.879Z" fill="#2F2E41"/>
<path d="M502.15 243.038H475.979C475.168 243.038 474.391 243.408 473.818 244.066C473.244 244.724 472.922 245.617 472.922 246.547V276.608C472.922 277.068 473.002 277.524 473.156 277.949C473.31 278.373 473.535 278.759 473.819 279.084C474.103 279.409 474.44 279.666 474.81 279.841C475.181 280.016 475.578 280.106 475.979 280.104H502.15C502.959 280.105 503.735 279.737 504.308 279.082C504.881 278.426 505.204 277.537 505.207 276.608V246.547C505.205 245.617 504.882 244.726 504.309 244.069C503.737 243.411 502.96 243.041 502.15 243.038V243.038Z" fill="white"/>
<path d="M502.15 294.264H475.979C475.168 294.265 474.391 294.634 473.818 295.293C473.244 295.951 472.922 296.843 472.922 297.774V327.835C472.922 328.295 473.002 328.75 473.156 329.175C473.31 329.6 473.535 329.986 473.819 330.31C474.103 330.635 474.44 330.892 474.81 331.068C475.181 331.243 475.578 331.332 475.979 331.331H502.15C502.959 331.331 503.735 330.963 504.308 330.308C504.881 329.653 505.204 328.763 505.207 327.835V297.774C505.205 296.844 504.882 295.953 504.309 295.295C503.737 294.637 502.96 294.267 502.15 294.264Z" fill="#E6E6E6"/>
<path d="M502.15 345.49H475.979C475.168 345.491 474.391 345.861 473.818 346.519C473.244 347.177 472.922 348.069 472.922 349V379.048C472.921 379.509 473 379.965 473.153 380.392C473.306 380.818 473.531 381.205 473.815 381.531C474.099 381.857 474.437 382.116 474.808 382.292C475.179 382.468 475.577 382.558 475.979 382.557H502.15C502.961 382.557 503.738 382.187 504.312 381.529C504.885 380.871 505.207 379.978 505.207 379.048V349C505.205 348.07 504.882 347.179 504.309 346.521C503.737 345.864 502.96 345.493 502.15 345.49V345.49Z" fill="#E6E6E6"/>
<path d="M505.16 399.606C505.03 398.797 504.658 398.066 504.108 397.539C503.559 397.012 502.866 396.721 502.15 396.717H475.979C475.168 396.717 474.391 397.087 473.818 397.745C473.244 398.403 472.922 399.296 472.922 400.226V430.274C472.921 430.735 473 431.192 473.153 431.618C473.306 432.044 473.531 432.431 473.815 432.758C474.099 433.084 474.437 433.342 474.808 433.518C475.179 433.694 475.577 433.784 475.979 433.783H502.15C502.961 433.783 503.738 433.413 504.312 432.755C504.885 432.097 505.207 431.205 505.207 430.274V400.226C505.21 400.018 505.194 399.81 505.16 399.606V399.606Z" fill="#E6E6E6"/>
<path d="M503.338 448.213C502.961 448.034 502.558 447.943 502.15 447.943H475.979C475.577 447.942 475.179 448.032 474.808 448.209C474.437 448.385 474.1 448.643 473.816 448.969C473.532 449.295 473.306 449.682 473.153 450.109C473 450.535 472.921 450.992 472.922 451.453V481.5C472.92 481.962 472.998 482.419 473.151 482.846C473.304 483.272 473.529 483.66 473.813 483.987C474.097 484.313 474.435 484.571 474.807 484.747C475.178 484.923 475.577 485.012 475.979 485.01H502.15C502.961 485.009 503.738 484.64 504.312 483.981C504.885 483.323 505.207 482.431 505.207 481.5V451.453C505.206 450.762 505.028 450.087 504.696 449.511C504.363 448.935 503.891 448.484 503.338 448.213Z" fill="#E6E6E6"/>
<path d="M557.127 243.038H530.956C530.145 243.038 529.368 243.408 528.795 244.066C528.222 244.724 527.899 245.617 527.899 246.547V276.608C527.899 277.068 527.979 277.524 528.133 277.949C528.287 278.373 528.512 278.759 528.796 279.084C529.08 279.409 529.417 279.666 529.787 279.841C530.158 280.016 530.555 280.106 530.956 280.104H557.127C557.936 280.105 558.712 279.737 559.285 279.082C559.858 278.426 560.182 277.537 560.184 276.608V246.547C560.182 245.617 559.859 244.726 559.286 244.069C558.714 243.411 557.937 243.041 557.127 243.038V243.038Z" fill="#E6E6E6"/>
<path d="M557.127 294.264H530.956C530.145 294.265 529.368 294.634 528.795 295.293C528.221 295.951 527.899 296.843 527.899 297.774V327.835C527.899 328.295 527.979 328.75 528.133 329.175C528.287 329.6 528.512 329.986 528.796 330.31C529.08 330.635 529.417 330.892 529.787 331.068C530.158 331.243 530.555 331.332 530.956 331.331H557.127C557.936 331.331 558.712 330.963 559.285 330.308C559.858 329.653 560.182 328.763 560.184 327.835V297.774C560.182 296.844 559.859 295.953 559.286 295.295C558.714 294.637 557.937 294.267 557.127 294.264Z" fill="#39BA8C"/>
<path d="M557.127 345.49H530.956C530.145 345.491 529.368 345.861 528.795 346.519C528.221 347.177 527.899 348.069 527.899 349V379.048C527.898 379.509 527.977 379.965 528.13 380.392C528.283 380.818 528.508 381.205 528.792 381.531C529.076 381.857 529.414 382.116 529.785 382.292C530.156 382.468 530.554 382.558 530.956 382.557H557.127C557.938 382.557 558.715 382.187 559.289 381.529C559.862 380.871 560.184 379.978 560.184 379.048V349C560.182 348.07 559.859 347.179 559.286 346.521C558.714 345.864 557.937 345.493 557.127 345.49V345.49Z" fill="#39BA8C"/>
<path d="M557.127 396.717H530.956C530.315 396.717 529.69 396.95 529.171 397.381C528.652 397.812 528.264 398.421 528.063 399.119C527.955 399.475 527.899 399.849 527.899 400.226V430.274C527.898 430.735 527.977 431.192 528.13 431.618C528.283 432.044 528.508 432.431 528.792 432.757C529.076 433.084 529.414 433.342 529.785 433.518C530.156 433.694 530.554 433.784 530.956 433.783H557.127C557.938 433.783 558.715 433.413 559.289 432.755C559.862 432.097 560.184 431.205 560.184 430.274V400.226C560.182 399.296 559.859 398.405 559.286 397.748C558.714 397.09 557.937 396.719 557.127 396.717V396.717Z" fill="#39BA8C"/>
<path d="M557.127 447.943H530.956C530.554 447.942 530.156 448.032 529.785 448.209C529.414 448.385 529.076 448.643 528.792 448.969C528.508 449.295 528.283 449.682 528.13 450.109C527.977 450.535 527.898 450.992 527.899 451.453V481.5C527.898 481.961 527.977 482.418 528.13 482.844C528.283 483.271 528.508 483.658 528.792 483.984C529.076 484.31 529.414 484.568 529.785 484.745C530.156 484.921 530.554 485.011 530.956 485.01H557.127C557.938 485.009 558.715 484.64 559.289 483.981C559.862 483.323 560.184 482.431 560.184 481.5V451.453C560.184 450.522 559.862 449.63 559.289 448.972C558.715 448.313 557.938 447.944 557.127 447.943V447.943Z" fill="#E6E6E6"/>
<path d="M612.104 243.038H585.933C585.122 243.038 584.345 243.408 583.772 244.066C583.199 244.724 582.876 245.617 582.876 246.547V276.608C582.876 277.068 582.956 277.524 583.11 277.949C583.264 278.373 583.489 278.759 583.773 279.084C584.057 279.409 584.394 279.666 584.764 279.841C585.135 280.016 585.532 280.106 585.933 280.104H612.104C612.913 280.105 613.689 279.737 614.262 279.082C614.835 278.426 615.159 277.537 615.161 276.608V246.547C615.159 245.617 614.836 244.726 614.263 244.069C613.691 243.411 612.914 243.041 612.104 243.038V243.038Z" fill="#39BA8C"/>
<path d="M612.104 294.264H585.933C585.122 294.265 584.345 294.634 583.772 295.293C583.198 295.951 582.876 296.843 582.876 297.774V327.835C582.876 328.295 582.956 328.75 583.11 329.175C583.264 329.6 583.489 329.986 583.773 330.31C584.057 330.635 584.394 330.892 584.764 331.068C585.135 331.243 585.532 331.332 585.933 331.331H612.104C612.913 331.331 613.689 330.963 614.262 330.308C614.835 329.653 615.159 328.763 615.161 327.835V297.774C615.159 296.844 614.836 295.953 614.263 295.295C613.691 294.637 612.914 294.267 612.104 294.264Z" fill="#39BA8C"/>
<path d="M612.104 345.49H585.933C585.122 345.491 584.345 345.861 583.772 346.519C583.198 347.177 582.876 348.069 582.876 349V379.048C582.875 379.509 582.954 379.965 583.107 380.392C583.26 380.818 583.485 381.205 583.769 381.531C584.053 381.857 584.391 382.116 584.762 382.292C585.133 382.468 585.531 382.558 585.933 382.557H612.104C612.915 382.557 613.692 382.187 614.266 381.529C614.839 380.871 615.161 379.978 615.161 379.048V349C615.159 348.07 614.836 347.179 614.263 346.521C613.691 345.864 612.914 345.493 612.104 345.49V345.49Z" fill="#E6E6E6"/>
<path d="M612.104 396.717H585.933C585.122 396.717 584.345 397.087 583.772 397.745C583.199 398.403 582.876 399.296 582.876 400.226V430.274C582.875 430.735 582.954 431.192 583.107 431.618C583.26 432.044 583.485 432.431 583.769 432.758C584.053 433.084 584.391 433.342 584.762 433.518C585.133 433.694 585.531 433.784 585.933 433.783H612.104C612.915 433.783 613.692 433.413 614.266 432.755C614.839 432.097 615.161 431.205 615.161 430.274V400.226C615.159 399.296 614.836 398.405 614.263 397.748C613.691 397.09 612.914 396.719 612.104 396.717V396.717Z" fill="#39BA8C"/>
<path d="M612.104 447.943H585.933C585.531 447.942 585.133 448.032 584.762 448.209C584.391 448.385 584.053 448.643 583.769 448.969C583.485 449.295 583.26 449.682 583.107 450.109C582.954 450.535 582.875 450.992 582.876 451.453V481.5C582.875 481.961 582.954 482.418 583.107 482.844C583.26 483.271 583.485 483.658 583.769 483.984C584.053 484.31 584.391 484.568 584.762 484.745C585.133 484.921 585.531 485.011 585.933 485.01H612.104C612.915 485.009 613.692 484.64 614.266 483.981C614.839 483.323 615.161 482.431 615.161 481.5V451.453C615.161 450.522 614.839 449.63 614.266 448.972C613.692 448.313 612.915 447.944 612.104 447.943V447.943Z" fill="#39BA8C"/>
<path d="M667.081 243.038H640.91C640.099 243.038 639.322 243.408 638.749 244.066C638.175 244.724 637.853 245.617 637.853 246.547V276.608C637.853 277.068 637.933 277.524 638.086 277.949C638.24 278.373 638.466 278.759 638.75 279.084C639.034 279.409 639.37 279.666 639.741 279.841C640.112 280.016 640.509 280.106 640.91 280.104H667.081C667.89 280.105 668.666 279.737 669.239 279.082C669.812 278.426 670.135 277.537 670.138 276.608V246.547C670.136 245.617 669.813 244.726 669.24 244.069C668.667 243.411 667.891 243.041 667.081 243.038V243.038Z" fill="#39BA8C"/>
<path d="M667.081 294.264H640.91C640.099 294.265 639.322 294.634 638.748 295.293C638.175 295.951 637.853 296.843 637.853 297.774V327.835C637.853 328.295 637.933 328.75 638.086 329.175C638.24 329.6 638.466 329.986 638.75 330.31C639.034 330.635 639.37 330.892 639.741 331.068C640.112 331.243 640.509 331.332 640.91 331.331H667.081C667.89 331.331 668.666 330.963 669.239 330.308C669.812 329.653 670.135 328.763 670.138 327.835V297.774C670.136 296.844 669.813 295.953 669.24 295.295C668.668 294.637 667.891 294.267 667.081 294.264V294.264Z" fill="white"/>
<path d="M667.081 345.49H640.91C640.099 345.491 639.322 345.861 638.748 346.519C638.175 347.177 637.853 348.069 637.853 349V379.048C637.852 379.509 637.93 379.965 638.084 380.392C638.237 380.818 638.462 381.205 638.746 381.531C639.03 381.857 639.368 382.116 639.739 382.292C640.11 382.468 640.508 382.558 640.91 382.557H667.081C667.892 382.557 668.669 382.187 669.242 381.529C669.816 380.871 670.138 379.978 670.138 379.048V349C670.136 348.07 669.813 347.179 669.24 346.521C668.668 345.864 667.891 345.493 667.081 345.49V345.49Z" fill="white"/>
<path d="M667.081 396.717H640.91C640.099 396.717 639.322 397.087 638.748 397.745C638.175 398.403 637.853 399.296 637.853 400.226V430.274C637.852 430.735 637.93 431.192 638.084 431.618C638.237 432.044 638.462 432.431 638.746 432.758C639.03 433.084 639.368 433.342 639.739 433.518C640.11 433.694 640.508 433.784 640.91 433.783H667.081C667.892 433.783 668.669 433.413 669.242 432.755C669.816 432.097 670.138 431.205 670.138 430.274V400.226C670.136 399.296 669.813 398.405 669.24 397.748C668.668 397.09 667.891 396.719 667.081 396.717V396.717Z" fill="#E6E6E6"/>
<path d="M667.081 447.943H640.91C640.508 447.942 640.11 448.032 639.739 448.209C639.368 448.385 639.03 448.643 638.746 448.969C638.462 449.295 638.237 449.682 638.084 450.109C637.93 450.535 637.852 450.992 637.853 451.453V481.5C637.852 481.961 637.93 482.418 638.084 482.844C638.237 483.271 638.462 483.658 638.746 483.984C639.03 484.31 639.368 484.568 639.739 484.745C640.11 484.921 640.508 485.011 640.91 485.01H667.081C667.892 485.009 668.669 484.64 669.243 483.981C669.816 483.323 670.138 482.431 670.138 481.5V451.453C670.138 450.522 669.816 449.63 669.242 448.972C668.669 448.313 667.892 447.944 667.081 447.943V447.943Z" fill="#39BA8C"/>
<path d="M722.058 243.038H695.875C695.066 243.041 694.291 243.412 693.721 244.07C693.15 244.728 692.829 245.619 692.83 246.547V276.608C692.83 277.535 693.151 278.424 693.722 279.08C694.293 279.736 695.067 280.104 695.875 280.104H722.058C722.867 280.105 723.643 279.737 724.216 279.082C724.789 278.426 725.112 277.537 725.115 276.608V246.547C725.113 245.617 724.79 244.726 724.217 244.069C723.644 243.411 722.868 243.041 722.058 243.038Z" fill="white"/>
<path d="M722.058 294.264H695.875C695.066 294.267 694.291 294.639 693.72 295.296C693.15 295.954 692.829 296.845 692.83 297.774V327.835C692.83 328.762 693.151 329.651 693.722 330.307C694.293 330.962 695.067 331.331 695.875 331.331H722.058C722.867 331.331 723.643 330.963 724.216 330.308C724.789 329.653 725.112 328.763 725.115 327.835V297.774C725.113 296.844 724.79 295.953 724.217 295.295C723.644 294.637 722.868 294.267 722.058 294.264V294.264Z" fill="white"/>
<path d="M722.058 345.49H695.875C695.066 345.494 694.291 345.865 693.721 346.523C693.15 347.181 692.829 348.072 692.83 349V379.048C692.829 379.508 692.907 379.964 693.059 380.389C693.212 380.814 693.436 381.201 693.718 381.527C694.001 381.853 694.337 382.112 694.707 382.289C695.077 382.465 695.474 382.556 695.875 382.557H722.058C722.869 382.557 723.646 382.187 724.219 381.529C724.793 380.871 725.115 379.978 725.115 379.048V349C725.113 348.07 724.79 347.179 724.217 346.521C723.644 345.864 722.868 345.493 722.058 345.49V345.49Z" fill="white"/>
<path d="M722.058 396.717H695.875C695.066 396.72 694.291 397.091 693.721 397.749C693.15 398.407 692.829 399.298 692.83 400.226V430.274C692.829 430.734 692.906 431.19 693.059 431.615C693.211 432.041 693.436 432.428 693.718 432.754C694.001 433.08 694.337 433.338 694.707 433.515C695.077 433.692 695.474 433.783 695.875 433.783H722.058C722.869 433.783 723.646 433.413 724.219 432.755C724.793 432.097 725.115 431.205 725.115 430.274V400.226C725.113 399.296 724.79 398.405 724.217 397.748C723.644 397.09 722.868 396.719 722.058 396.717V396.717Z" fill="#39BA8C"/>
<path d="M722.058 447.943H695.875C695.474 447.944 695.077 448.035 694.707 448.212C694.337 448.388 694.001 448.647 693.718 448.973C693.436 449.299 693.211 449.686 693.059 450.111C692.906 450.537 692.829 450.993 692.83 451.453V481.5C692.829 481.96 692.906 482.416 693.059 482.842C693.211 483.267 693.436 483.654 693.718 483.98C694.001 484.306 694.337 484.565 694.707 484.741C695.077 484.918 695.474 485.009 695.875 485.01H722.058C722.869 485.009 723.646 484.64 724.219 483.981C724.793 483.323 725.115 482.431 725.115 481.5V451.453C725.115 450.522 724.793 449.63 724.219 448.972C723.646 448.313 722.869 447.944 722.058 447.943V447.943Z" fill="#E6E6E6"/>
<path d="M777.035 243.038H750.852C750.043 243.041 749.268 243.412 748.697 244.07C748.127 244.728 747.806 245.619 747.807 246.547V276.608C747.807 277.535 748.128 278.424 748.699 279.08C749.27 279.736 750.044 280.104 750.852 280.104H777.035C777.844 280.105 778.62 279.737 779.193 279.081C779.766 278.426 780.089 277.537 780.092 276.608V246.547C780.09 245.617 779.767 244.726 779.194 244.069C778.621 243.411 777.845 243.041 777.035 243.038V243.038Z" fill="white"/>
<path d="M777.035 294.264H750.852C750.043 294.267 749.268 294.639 748.697 295.296C748.127 295.954 747.806 296.845 747.807 297.774V327.835C747.807 328.762 748.128 329.651 748.699 330.307C749.27 330.962 750.044 331.331 750.852 331.331H777.035C777.844 331.331 778.62 330.963 779.193 330.308C779.766 329.653 780.089 328.763 780.092 327.835V297.774C780.09 296.844 779.767 295.953 779.194 295.295C778.621 294.637 777.845 294.267 777.035 294.264V294.264Z" fill="white"/>
<path d="M777.035 345.49H750.852C750.043 345.494 749.268 345.865 748.697 346.523C748.127 347.181 747.806 348.072 747.807 349V379.048C747.805 379.508 747.883 379.964 748.036 380.389C748.188 380.814 748.412 381.201 748.695 381.527C748.978 381.853 749.314 382.112 749.684 382.289C750.054 382.465 750.451 382.556 750.852 382.557H777.035C777.846 382.557 778.623 382.187 779.196 381.529C779.77 380.871 780.092 379.978 780.092 379.048V349C780.09 348.07 779.767 347.179 779.194 346.521C778.621 345.864 777.845 345.493 777.035 345.49V345.49Z" fill="#39BA8C"/>
<path d="M777.035 396.717H750.852C750.043 396.72 749.268 397.091 748.698 397.749C748.127 398.407 747.806 399.298 747.807 400.226V430.274C747.805 430.734 747.883 431.19 748.036 431.615C748.188 432.041 748.412 432.428 748.695 432.754C748.978 433.08 749.314 433.338 749.684 433.515C750.054 433.692 750.451 433.783 750.852 433.783H777.035C777.846 433.783 778.623 433.413 779.196 432.755C779.77 432.097 780.092 431.205 780.092 430.274V400.226C780.09 399.296 779.767 398.405 779.194 397.748C778.621 397.09 777.845 396.72 777.035 396.717V396.717Z" fill="#E6E6E6"/>
<path d="M777.035 447.943H750.852C750.451 447.944 750.054 448.035 749.684 448.212C749.314 448.388 748.978 448.647 748.695 448.973C748.412 449.299 748.188 449.686 748.036 450.111C747.883 450.537 747.805 450.993 747.807 451.453V481.5C747.805 481.96 747.883 482.416 748.036 482.842C748.188 483.267 748.412 483.654 748.695 483.98C748.978 484.306 749.314 484.565 749.684 484.741C750.054 484.918 750.451 485.009 750.852 485.01H777.035C777.846 485.009 778.623 484.639 779.196 483.981C779.77 483.323 780.092 482.431 780.092 481.5V451.453C780.092 450.522 779.77 449.63 779.196 448.972C778.623 448.314 777.846 447.944 777.035 447.943Z" fill="white"/>
<path d="M832.012 243.038H805.829C805.02 243.041 804.245 243.412 803.675 244.07C803.104 244.728 802.783 245.619 802.784 246.547V276.608C802.784 277.535 803.105 278.424 803.676 279.08C804.247 279.736 805.021 280.104 805.829 280.104H832.012C832.821 280.105 833.597 279.737 834.17 279.081C834.743 278.426 835.066 277.537 835.069 276.608V246.547C835.067 245.617 834.744 244.726 834.171 244.069C833.598 243.411 832.822 243.041 832.012 243.038V243.038Z" fill="#39BA8C"/>
<path d="M832.012 294.264H805.829C805.02 294.267 804.245 294.639 803.674 295.296C803.104 295.954 802.783 296.845 802.784 297.774V327.835C802.784 328.762 803.105 329.651 803.676 330.307C804.247 330.962 805.021 331.331 805.829 331.331H832.012C832.821 331.331 833.597 330.963 834.17 330.308C834.743 329.653 835.066 328.763 835.069 327.835V297.774C835.067 296.844 834.744 295.953 834.171 295.295C833.598 294.637 832.822 294.267 832.012 294.264Z" fill="#39BA8C"/>
<path d="M832.012 345.49H805.829C805.02 345.494 804.245 345.865 803.674 346.523C803.104 347.181 802.783 348.072 802.784 349V379.048C802.783 379.508 802.86 379.964 803.013 380.389C803.165 380.814 803.389 381.201 803.672 381.527C803.955 381.853 804.291 382.112 804.661 382.289C805.031 382.465 805.428 382.556 805.829 382.557H832.012C832.823 382.557 833.6 382.187 834.173 381.529C834.746 380.871 835.069 379.978 835.069 379.048V349C835.067 348.07 834.744 347.179 834.171 346.521C833.598 345.864 832.822 345.493 832.012 345.49V345.49Z" fill="#E6E6E6"/>
<path d="M832.012 396.717H805.829C805.02 396.72 804.245 397.091 803.675 397.749C803.104 398.407 802.783 399.298 802.784 400.226V430.274C802.783 430.734 802.86 431.19 803.013 431.615C803.165 432.041 803.389 432.428 803.672 432.754C803.955 433.08 804.291 433.338 804.661 433.515C805.031 433.692 805.428 433.783 805.829 433.783H832.012C832.823 433.783 833.6 433.413 834.173 432.755C834.747 432.097 835.069 431.205 835.069 430.274V400.226C835.067 399.296 834.744 398.405 834.171 397.748C833.598 397.09 832.822 396.72 832.012 396.717V396.717Z" fill="white"/>
<path d="M832.012 447.943H805.829C805.428 447.944 805.031 448.035 804.661 448.212C804.291 448.388 803.955 448.647 803.672 448.973C803.389 449.299 803.165 449.686 803.013 450.111C802.86 450.537 802.783 450.993 802.784 451.453V481.5C802.783 481.96 802.86 482.416 803.013 482.842C803.165 483.267 803.389 483.654 803.672 483.98C803.955 484.306 804.291 484.565 804.661 484.741C805.031 484.918 805.428 485.009 805.829 485.01H832.012C832.823 485.009 833.6 484.639 834.173 483.981C834.747 483.323 835.069 482.431 835.069 481.5V451.453C835.069 450.522 834.747 449.63 834.173 448.972C833.6 448.314 832.823 447.944 832.012 447.943Z" fill="#39BA8C"/>
<path d="M886.989 243.038H860.806C859.997 243.041 859.222 243.412 858.651 244.07C858.081 244.728 857.76 245.619 857.761 246.547V276.608C857.761 277.535 858.082 278.424 858.653 279.08C859.224 279.736 859.998 280.104 860.806 280.104H886.989C887.798 280.105 888.574 279.737 889.147 279.081C889.72 278.426 890.043 277.537 890.046 276.608V246.547C890.044 245.617 889.721 244.726 889.148 244.069C888.575 243.411 887.799 243.041 886.989 243.038Z" fill="#39BA8C"/>
<path d="M886.989 294.264H860.806C859.997 294.267 859.222 294.639 858.651 295.296C858.081 295.954 857.76 296.845 857.761 297.774V327.835C857.761 328.762 858.082 329.651 858.653 330.307C859.224 330.962 859.998 331.331 860.806 331.331H886.989C887.798 331.331 888.574 330.963 889.147 330.308C889.72 329.653 890.043 328.763 890.046 327.835V297.774C890.044 296.844 889.721 295.953 889.148 295.295C888.575 294.637 887.799 294.267 886.989 294.264V294.264Z" fill="#39BA8C"/>
<path d="M886.989 345.49H860.806C859.997 345.494 859.222 345.865 858.651 346.523C858.081 347.181 857.76 348.072 857.761 349V379.048C857.759 379.508 857.837 379.964 857.99 380.389C858.142 380.814 858.366 381.201 858.649 381.527C858.932 381.853 859.268 382.112 859.638 382.289C860.008 382.465 860.405 382.556 860.806 382.557H886.989C887.8 382.557 888.577 382.187 889.15 381.529C889.723 380.871 890.046 379.978 890.046 379.048V349C890.044 348.07 889.721 347.179 889.148 346.521C888.575 345.864 887.799 345.493 886.989 345.49Z" fill="#E6E6E6"/>
<path d="M886.989 396.717H860.806C859.997 396.72 859.222 397.091 858.651 397.749C858.081 398.407 857.76 399.298 857.761 400.226V430.274C857.759 430.734 857.837 431.19 857.99 431.615C858.142 432.041 858.366 432.428 858.649 432.754C858.932 433.08 859.268 433.338 859.638 433.515C860.008 433.692 860.405 433.783 860.806 433.783H886.989C887.8 433.783 888.577 433.413 889.15 432.755C889.723 432.097 890.046 431.205 890.046 430.274V400.226C890.044 399.296 889.721 398.405 889.148 397.748C888.575 397.09 887.799 396.72 886.989 396.717V396.717Z" fill="#39BA8C"/>
<path d="M886.989 447.943H860.806C860.405 447.944 860.008 448.035 859.638 448.212C859.268 448.388 858.932 448.647 858.649 448.973C858.366 449.299 858.142 449.686 857.99 450.111C857.837 450.537 857.759 450.993 857.761 451.453V481.5C857.759 481.96 857.837 482.416 857.99 482.842C858.142 483.267 858.366 483.654 858.649 483.98C858.932 484.306 859.268 484.565 859.638 484.741C860.008 484.918 860.405 485.009 860.806 485.01H886.989C887.8 485.009 888.577 484.64 889.15 483.981C889.723 483.323 890.046 482.431 890.046 481.5V451.453C890.046 450.522 889.723 449.63 889.15 448.972C888.577 448.314 887.8 447.944 886.989 447.943V447.943Z" fill="#39BA8C"/>
<path d="M941.966 243.038H915.783C914.974 243.041 914.199 243.412 913.628 244.07C913.058 244.728 912.737 245.619 912.738 246.547V276.608C912.738 277.535 913.059 278.424 913.63 279.08C914.201 279.736 914.975 280.104 915.783 280.104H941.966C942.775 280.105 943.551 279.737 944.124 279.081C944.697 278.426 945.02 277.537 945.023 276.608V246.547C945.021 245.617 944.698 244.726 944.125 244.069C943.552 243.411 942.776 243.041 941.966 243.038V243.038Z" fill="#E6E6E6"/>
<path d="M941.966 294.264H915.783C914.974 294.267 914.199 294.639 913.628 295.296C913.058 295.954 912.737 296.845 912.738 297.774V327.835C912.738 328.762 913.059 329.651 913.63 330.307C914.201 330.962 914.975 331.331 915.783 331.331H941.966C942.775 331.331 943.551 330.963 944.124 330.308C944.697 329.653 945.02 328.763 945.023 327.835V297.774C945.021 296.844 944.698 295.953 944.125 295.295C943.552 294.637 942.776 294.267 941.966 294.264V294.264Z" fill="#39BA8C"/>
<path d="M941.966 345.49H915.783C914.974 345.494 914.199 345.865 913.628 346.523C913.058 347.181 912.737 348.072 912.738 349V379.048C912.736 379.508 912.814 379.964 912.967 380.389C913.119 380.814 913.343 381.201 913.626 381.527C913.909 381.853 914.245 382.112 914.615 382.289C914.985 382.465 915.382 382.556 915.783 382.557H941.966C942.777 382.557 943.554 382.187 944.127 381.529C944.7 380.871 945.023 379.978 945.023 379.048V349C945.021 348.07 944.698 347.179 944.125 346.521C943.552 345.864 942.776 345.493 941.966 345.49V345.49Z" fill="#39BA8C"/>
<path d="M941.966 396.717H915.783C914.974 396.72 914.199 397.091 913.628 397.749C913.058 398.407 912.737 399.298 912.738 400.226V430.274C912.736 430.734 912.814 431.19 912.967 431.615C913.119 432.041 913.343 432.428 913.626 432.754C913.909 433.08 914.245 433.338 914.615 433.515C914.985 433.692 915.382 433.783 915.783 433.783H941.966C942.777 433.783 943.554 433.413 944.127 432.755C944.7 432.097 945.023 431.205 945.023 430.274V400.226C945.021 399.296 944.698 398.405 944.125 397.748C943.552 397.09 942.776 396.72 941.966 396.717V396.717Z" fill="#39BA8C"/>
<path d="M941.966 447.943H915.783C915.382 447.944 914.985 448.035 914.615 448.212C914.245 448.388 913.909 448.647 913.626 448.973C913.343 449.299 913.119 449.686 912.967 450.111C912.814 450.537 912.736 450.993 912.738 451.453V481.5C912.736 481.96 912.814 482.416 912.967 482.842C913.119 483.267 913.343 483.654 913.626 483.98C913.909 484.306 914.245 484.565 914.615 484.741C914.985 484.918 915.382 485.009 915.783 485.01H941.966C942.777 485.009 943.554 484.64 944.127 483.981C944.7 483.323 945.023 482.431 945.023 481.5V451.453C945.023 450.522 944.7 449.63 944.127 448.972C943.554 448.314 942.777 447.944 941.966 447.943V447.943Z" fill="#E6E6E6"/>
<path d="M996.943 243.038H970.76C969.951 243.041 969.176 243.412 968.605 244.07C968.035 244.728 967.714 245.619 967.714 246.547V276.608C967.715 277.535 968.035 278.424 968.606 279.08C969.178 279.736 969.952 280.104 970.76 280.104H996.943C997.752 280.105 998.528 279.737 999.101 279.081C999.674 278.426 999.997 277.537 1000 276.608V246.547C999.998 245.617 999.675 244.726 999.102 244.069C998.529 243.411 997.753 243.041 996.943 243.038V243.038Z" fill="#E6E6E6"/>
<path d="M996.943 294.264H970.76C969.951 294.267 969.176 294.639 968.605 295.296C968.034 295.954 967.714 296.845 967.714 297.774V327.835C967.715 328.762 968.035 329.651 968.606 330.307C969.178 330.962 969.952 331.331 970.76 331.331H996.943C997.752 331.331 998.528 330.963 999.101 330.308C999.674 329.653 999.997 328.763 1000 327.835V297.774C999.998 296.844 999.675 295.953 999.102 295.295C998.529 294.637 997.753 294.267 996.943 294.264V294.264Z" fill="#E6E6E6"/>
<path d="M996.943 345.49H970.76C969.951 345.494 969.176 345.865 968.605 346.523C968.034 347.181 967.714 348.072 967.714 349V379.048C967.713 379.508 967.791 379.964 967.944 380.389C968.096 380.814 968.32 381.201 968.603 381.527C968.886 381.853 969.222 382.112 969.592 382.289C969.962 382.465 970.359 382.556 970.76 382.557H996.943C997.754 382.557 998.531 382.187 999.104 381.529C999.677 380.871 1000 379.978 1000 379.048V349C999.998 348.07 999.675 347.179 999.102 346.521C998.529 345.864 997.753 345.493 996.943 345.49V345.49Z" fill="#39BA8C"/>
<path d="M996.943 396.717H970.76C969.951 396.72 969.176 397.091 968.605 397.749C968.035 398.407 967.714 399.298 967.714 400.226V430.274C967.713 430.734 967.791 431.19 967.944 431.615C968.096 432.041 968.32 432.428 968.603 432.754C968.886 433.08 969.222 433.338 969.592 433.515C969.962 433.692 970.359 433.783 970.76 433.783H996.943C997.754 433.783 998.531 433.413 999.104 432.755C999.677 432.097 1000 431.205 1000 430.274V400.226C999.998 399.296 999.675 398.405 999.102 397.748C998.529 397.09 997.753 396.72 996.943 396.717V396.717Z" fill="#E6E6E6"/>
<path d="M996.943 447.943H970.76C970.359 447.944 969.962 448.035 969.592 448.212C969.222 448.388 968.886 448.647 968.603 448.973C968.32 449.299 968.096 449.686 967.944 450.111C967.791 450.537 967.713 450.993 967.714 451.453V481.5C967.713 481.96 967.791 482.416 967.944 482.842C968.096 483.267 968.32 483.654 968.603 483.98C968.886 484.306 969.222 484.565 969.592 484.741C969.962 484.918 970.359 485.009 970.76 485.01H996.943C997.754 485.009 998.531 484.64 999.104 483.981C999.677 483.323 1000 482.431 1000 481.5V451.453C1000 450.522 999.677 449.63 999.104 448.972C998.531 448.314 997.754 447.944 996.943 447.943V447.943Z" fill="#E6E6E6"/>
<path d="M395.156 890.962H394.427L395.05 890.868L395.156 890.962Z" fill="#2F2E41"/>
<path d="M332.512 330.784C376.876 330.784 412.84 289.494 412.84 238.561C412.84 187.627 376.876 146.337 332.512 146.337C288.149 146.337 252.185 187.627 252.185 238.561C252.185 289.494 288.149 330.784 332.512 330.784Z" fill="#FFB6B6"/>
<path d="M402.858 170.944C402.858 170.944 423.867 124.832 377.646 120.64C377.646 120.64 338.241 79.6021 298.078 113.138C298.078 113.138 276.17 113.138 264.19 141.6C264.19 141.6 246.96 134.098 243.173 154.176C243.173 154.176 230.566 196.096 243.173 233.824C255.781 271.552 259.969 275.743 259.969 275.743C259.969 275.743 239.252 196.645 289.68 192.453C340.107 188.261 396.538 152.08 400.74 198.192C404.943 244.303 411.267 255.665 411.267 255.665C411.267 255.665 451.182 189.808 402.858 170.944Z" fill="#2F2E41"/>
<path d="M540.303 465.842L540.044 467.408L537.14 485.01L517.07 606.765L515.883 613.933L513.39 629.092L509.981 649.771L502.421 695.598L500.258 708.732L499.446 713.659L499.164 715.387L496.918 728.98L496.236 733.083L490.758 779.693L485.972 820.309L501.986 838.694L492.439 849.655L486.172 890.866L486.184 890.96H230.428C220.082 883.266 209.884 875.333 199.836 867.162L201.941 849.075C201.941 849.075 209.183 816.773 206.138 812.912C203.104 809.052 196.45 802.154 196.45 802.154L204.833 779.693L205.997 776.575L204.045 730.1L203.998 728.98L203.351 713.659L203.269 711.688L203.14 708.732L200.659 649.771L200.612 648.799L199.86 630.927L199.154 613.933L198.848 606.765L195.827 535.048L193.781 486.346L191.994 443.948L199.178 441.154L276.011 411.174L307.838 363.673L374.079 364.24L406.505 364.523L460.612 422.134L472.922 428.883L473.016 428.937L481.846 433.783L504.232 446.053L527.899 459.039L540.044 465.694L540.303 465.842Z" fill="#CACACA"/>
<path d="M316.398 752.604C311.544 754.763 306.337 755.673 301.143 755.272C295.949 754.87 290.895 753.166 286.337 750.28C281.779 747.393 277.827 743.394 274.761 738.565C271.694 733.735 269.588 728.192 268.589 722.327L143.305 701.92L186.857 645.359L299.152 673.409C307.846 672.136 316.644 674.568 323.881 680.245C331.117 685.922 336.288 694.45 338.414 704.211C340.54 713.973 339.473 724.291 335.415 733.21C331.358 742.129 324.591 749.03 316.398 752.604V752.604Z" fill="#FFB6B6"/>
<path d="M260.539 649.771C258.218 646.393 254.933 644.065 251.262 643.197L199.859 630.927L194.58 629.672C191.513 628.937 188.614 627.466 186.076 625.357C183.537 623.247 181.415 620.545 179.849 617.429C178.224 614.157 177.24 610.518 176.968 606.765C176.723 603.353 177.079 599.919 178.014 596.668L195.827 535.048L207.384 495.066C208.785 490.244 209.611 485.227 209.841 480.15C210.485 466.102 206.699 452.258 199.177 441.154C192.564 431.393 183.392 424.334 173.016 421.018C162.639 417.703 151.609 418.307 141.555 422.742C141.261 422.863 140.955 422.998 140.661 423.133C133.451 426.439 127.009 431.624 121.845 438.28C116.68 444.935 112.934 452.879 110.904 461.482L98.3471 513.923L72.4458 622.032C69.853 632.863 69.3292 644.21 70.9103 655.296C72.4913 666.381 76.1399 676.944 81.6063 686.26C87.0727 695.577 94.2278 703.427 102.582 709.274C110.936 715.121 120.292 718.827 130.009 720.138L204.045 730.1L238.306 734.716C242.267 735.263 246.263 734.076 249.496 731.392C252.73 728.707 254.964 724.723 255.753 720.233C255.809 719.988 255.852 719.74 255.883 719.49L256.706 713.659L263.678 664.552L263.748 664.052C264.112 661.546 264.014 658.981 263.461 656.521C262.908 654.062 261.913 651.762 260.539 649.771Z" fill="#CACACA"/>
<path d="M396.199 754.178C401.27 755.529 406.537 755.588 411.63 754.349C416.723 753.111 421.517 750.606 425.675 747.01C429.833 743.414 433.254 738.816 435.696 733.538C438.139 728.26 439.544 722.432 439.812 716.463L561.338 675.976L511.273 627.032L403.546 672.982C394.783 673.129 386.371 676.962 379.904 683.754C373.437 690.546 369.365 699.825 368.46 709.834C367.554 719.842 369.878 729.884 374.99 738.057C380.103 746.23 387.649 751.966 396.199 754.178V754.178Z" fill="#FFB6B6"/>
<path d="M621.675 585.411L563.876 432.69C559.148 420.152 550.705 409.942 540.044 403.871C536.749 402.008 533.288 400.56 529.721 399.551C529.169 399.389 528.616 399.241 528.063 399.119C520.501 397.225 512.657 397.391 505.16 399.606C498.308 401.627 491.903 405.283 486.365 410.338C480.826 415.392 476.278 421.729 473.016 428.938C472.98 428.997 472.949 429.061 472.922 429.126C469.279 437.218 467.341 446.179 467.266 455.288C467.19 464.396 468.978 473.398 472.487 481.568L473.204 483.214L514.049 577.393C515.444 580.613 516.229 584.136 516.355 587.73C516.48 591.323 515.942 594.907 514.777 598.245C513.611 601.583 511.844 604.601 509.591 607.1C507.338 609.599 504.65 611.522 501.704 612.745L498.835 613.933L447.244 635.328C443.373 636.914 440.189 640.162 438.362 644.39C436.535 648.617 436.208 653.493 437.45 657.991L437.58 658.464L452.041 711.593C452.111 711.837 452.182 712.08 452.264 712.322C452.391 712.781 452.549 713.228 452.735 713.659C454.272 717.616 456.988 720.814 460.396 722.677C463.803 724.541 467.678 724.947 471.323 723.823L499.164 715.387L504.843 713.659L576.738 691.859C586.198 688.989 595.007 683.806 602.56 676.665C610.113 669.523 616.233 660.592 620.5 650.483C624.768 640.374 627.082 629.326 627.285 618.094C627.487 606.863 625.574 595.714 621.675 585.411L621.675 585.411Z" fill="#CACACA"/>
<path d="M52.7878 713.659C69.4483 736.989 87.4163 759.047 106.577 779.693H637.97C643.09 779.702 647.998 782.042 651.617 786.2C655.236 790.357 657.271 795.993 657.276 801.871L658.04 956.468C690.731 939.224 721.345 917.206 749.124 890.96C756.836 883.685 764.31 876.094 771.545 868.188C776.283 863.032 780.907 857.75 785.418 852.341C819.237 811.893 846.622 764.957 866.332 713.659H52.7878Z" fill="#3F3D56"/>
<path d="M785.418 852.341C780.915 857.754 776.291 863.036 771.545 868.188H658.428V852.341H785.418Z" fill="white"/>
<path d="M539.245 345.49C538.686 344.306 537.859 343.317 536.851 342.628C535.843 341.939 534.692 341.576 533.519 341.576H148.069C146.341 341.581 144.685 342.373 143.464 343.777C142.243 345.181 141.557 347.084 141.555 349.068V613.933H540.044V349.068C540.05 347.816 539.775 346.584 539.245 345.49V345.49Z" fill="#3F3D56"/>
<path d="M141.206 606.762V639.447C141.206 640.802 141.439 642.143 141.89 643.395C142.342 644.647 143.004 645.784 143.838 646.743C144.673 647.701 145.664 648.461 146.754 648.979C147.844 649.498 149.013 649.765 150.193 649.765H297.273V714.269H295.319C295.165 714.269 295.014 714.303 294.872 714.371C294.73 714.438 294.602 714.537 294.493 714.661C294.385 714.786 294.299 714.934 294.24 715.096C294.181 715.259 294.151 715.433 294.151 715.609V720.096C294.151 720.272 294.181 720.446 294.24 720.609C294.299 720.771 294.385 720.919 294.493 721.043C294.602 721.168 294.73 721.267 294.872 721.334C295.014 721.401 295.165 721.436 295.319 721.436H386.624C386.777 721.436 386.929 721.401 387.071 721.334C387.212 721.267 387.341 721.168 387.449 721.043C387.558 720.919 387.644 720.771 387.702 720.609C387.761 720.446 387.791 720.272 387.791 720.096V715.609C387.791 715.433 387.761 715.259 387.702 715.096C387.644 714.934 387.558 714.786 387.449 714.661C387.341 714.537 387.212 714.438 387.071 714.371C386.929 714.303 386.777 714.269 386.624 714.269H384.67V649.765H531.749C532.93 649.765 534.098 649.498 535.189 648.979C536.279 648.461 537.27 647.701 538.104 646.743C538.939 645.784 539.601 644.647 540.052 643.395C540.504 642.143 540.736 640.802 540.736 639.447V606.762H141.206Z" fill="#3F3D56"/>
<path d="M336.144 512.952C356.472 512.952 372.951 494.032 372.951 470.694C372.951 447.355 356.472 428.435 336.144 428.435C315.815 428.435 299.336 447.355 299.336 470.694C299.336 494.032 315.815 512.952 336.144 512.952Z" fill="#39BA8C"/>
<path d="M429.926 233.521H424.047C424.047 182.498 380.063 149.062 335.691 149.035C329.237 149.013 322.797 149.732 316.468 151.181C309.343 152.815 301.948 154.772 294.682 157.323C266.029 167.406 239.458 186.898 239.458 233.521C239.452 242.576 240.455 251.594 242.444 260.356L236.754 262.057C234.643 252.739 233.576 243.15 233.579 233.521C233.579 192.783 248.146 164.801 273.307 148.117C286.534 139.343 302.677 133.687 321.171 130.934C328.867 129.758 336.647 129.487 344.391 130.124C395.418 134.335 429.926 179.258 429.926 233.521Z" fill="#39BA8C"/>
<path d="M439.719 237.26L437.403 217.607C436.832 212.643 434.749 208.072 431.524 204.702C429.454 202.505 426.976 200.878 424.277 199.942C421.578 199.007 418.729 198.788 415.946 199.303L412.266 199.883C411.259 200.036 410.289 200.416 409.411 201.002C408.533 201.588 407.765 202.369 407.152 203.299C406.533 204.225 406.081 205.283 405.821 206.411C405.56 207.539 405.497 208.716 405.635 209.872L410.985 255.146C411.205 256.991 411.925 258.71 413.044 260.059C414.162 261.409 415.622 262.32 417.216 262.664C417.688 262.773 418.169 262.827 418.65 262.826C418.996 262.826 419.342 262.799 419.685 262.745L423.8 262.111C426.309 261.729 428.723 260.762 430.895 259.269C433.066 257.776 434.949 255.79 436.427 253.432C436.745 252.919 437.05 252.392 437.333 251.852C439.536 247.435 440.377 242.294 439.719 237.26Z" fill="#39BA8C"/>
<path d="M409.891 200.707C408.812 201.309 407.873 202.197 407.152 203.299C406.533 204.225 406.081 205.283 405.821 206.411C405.56 207.54 405.497 208.716 405.635 209.872L410.985 255.146C411.205 256.991 411.925 258.71 413.044 260.059C414.162 261.409 415.622 262.32 417.216 262.664L409.891 200.707Z" fill="white"/>
<path d="M439.719 237.26L437.403 217.607C436.832 212.643 434.749 208.072 431.524 204.702L436.851 249.746C436.93 250.47 437.092 251.177 437.333 251.852C439.536 247.435 440.377 242.294 439.719 237.26V237.26Z" fill="#3F3D56"/>
<path d="M421.414 251.421C423.022 251.171 423.831 246.776 423.22 241.604C422.609 236.433 420.81 232.444 419.201 232.695C417.592 232.946 416.784 237.341 417.395 242.512C418.006 247.683 419.805 251.672 421.414 251.421Z" fill="#3F3D56"/>
<path d="M417.886 227.124C419.495 226.874 420.304 222.478 419.693 217.307C419.082 212.136 417.282 208.147 415.674 208.398C414.065 208.648 413.256 213.044 413.867 218.215C414.478 223.386 416.278 227.375 417.886 227.124Z" fill="#3F3D56"/>
<path d="M440.225 236.573C441.834 236.322 442.643 231.927 442.032 226.756C441.421 221.585 439.621 217.596 438.013 217.847C436.404 218.097 435.595 222.492 436.206 227.664C436.817 232.835 438.617 236.824 440.225 236.573Z" fill="#3F3D56"/>
<path d="M335.691 149.035C329.237 149.013 322.797 149.732 316.468 151.181C309.343 152.815 301.948 154.772 294.682 157.323C283.336 156.689 274.988 153.314 273.307 148.117C286.534 139.343 302.677 133.687 321.171 130.934C328.867 129.758 336.647 129.487 344.391 130.124C345.211 130.676 345.92 131.42 346.471 132.309C347.022 133.198 347.403 134.21 347.589 135.28C348.142 139.978 343.474 144.972 335.691 149.035Z" fill="#3F3D56"/>
<path d="M260.633 280.361L251.58 237.153C251.257 235.594 250.54 234.179 249.519 233.086C248.498 231.994 247.219 231.272 245.842 231.011C245.453 230.941 245.06 230.905 244.666 230.903C244.112 230.905 243.559 230.982 243.02 231.132L239.517 232.104C235.006 233.357 231.112 236.613 228.689 241.158C226.267 245.703 225.514 251.166 226.595 256.347L230.652 275.731C231.578 280.294 233.784 284.382 236.93 287.367C237.44 287.839 237.974 288.276 238.529 288.676C240.5 290.094 242.698 291.044 244.994 291.471C247.29 291.898 249.637 291.792 251.897 291.16L255.389 290.188C256.312 289.94 257.181 289.476 257.94 288.824C259.069 287.879 259.928 286.57 260.408 285.063C260.887 283.556 260.966 281.919 260.633 280.361Z" fill="#39BA8C"/>
<path d="M241.654 272.321C243.232 271.885 243.649 267.419 242.586 262.345C241.522 257.272 239.381 253.512 237.803 253.948C236.224 254.384 235.807 258.851 236.87 263.924C237.934 268.998 240.075 272.757 241.654 272.321Z" fill="#3F3D56"/>
<path d="M229.896 276.371C231.475 275.935 231.892 271.468 230.829 266.395C229.765 261.321 227.624 257.562 226.045 257.998C224.467 258.434 224.05 262.9 225.113 267.974C226.177 273.047 228.318 276.807 229.896 276.371Z" fill="#3F3D56"/>
<path d="M261.209 280.199L252.156 236.99C251.803 235.304 251.025 233.774 249.918 232.593C248.812 231.411 247.427 230.631 245.936 230.349L258.293 289.364C259.513 288.338 260.442 286.92 260.96 285.289C261.479 283.658 261.566 281.886 261.209 280.199V280.199Z" fill="white"/>
<path d="M228.641 247.789C228.391 246.588 227.922 245.461 227.266 244.482C225.993 248.266 225.759 252.406 226.595 256.347L230.652 275.731C231.578 280.294 233.784 284.382 236.93 287.367L228.641 247.789Z" fill="#3F3D56"/>
</g>
<defs>
<clipPath id="clip0_311_81">
<rect width="1000" height="1000" fill="white"/>
</clipPath>
</defs>
</svg>
