<svg width="600" height="600" viewBox="0 0 600 600" fill="none" xmlns="http://www.w3.org/2000/svg">
<g clip-path="url(#clip0_311_160)">
<path d="M540.983 312.25C541.061 386.493 516.066 457.88 471.251 511.405C468.549 514.652 465.774 517.822 462.927 520.913C458.588 525.651 454.104 530.205 449.474 534.576C406.162 575.545 352.091 598.566 295.985 599.927C294.116 599.976 292.239 600 290.356 600C245.61 600 189.331 572.561 138.257 534.576C134.031 531.434 129.843 528.218 125.693 524.93C123.753 523.408 121.823 521.863 119.902 520.297C100.203 504.328 81.5055 486.791 63.9464 467.816C52.4498 455.428 41.669 442.194 31.6727 428.195C-7.57073 372.62 -16.2264 322.544 39.7217 312.25C46.3457 311.035 52.7746 309.736 59.0083 308.354C68.0379 306.362 76.6795 304.21 84.9331 301.899C96.0507 298.797 106.496 295.433 116.269 291.808C119.556 290.593 122.768 289.354 125.905 288.09C172.28 269.39 203.319 245.003 224.447 218.544C228.031 214.065 231.335 209.532 234.359 204.946C238.985 197.964 243.188 190.625 246.936 182.981C252.111 172.36 256.456 161.234 259.923 149.734L260.114 149.103C276.925 93.43 271.81 41.7906 290.356 24.5073C369.633 -49.3802 468.33 55.8424 514.656 179.928C516.991 186.18 519.188 192.47 521.245 198.798C522.169 201.625 523.06 204.457 523.919 207.294C526.176 214.689 528.224 222.102 530.063 229.534C530.769 232.369 531.441 235.201 532.081 238.03C532.765 241.083 533.421 244.129 534.028 247.174C538.535 269.471 540.983 291.459 540.983 312.25Z" fill="url(#paint0_radial_311_160)"/>
<path d="M540.983 312.25C541.061 386.493 516.066 457.88 471.251 511.405C468.549 514.652 465.774 517.822 462.927 520.913C458.588 525.651 454.104 530.205 449.474 534.576C406.162 575.545 352.091 598.566 295.985 599.927C294.116 599.976 292.239 600 290.356 600C245.61 600 189.331 572.561 138.257 534.576C134.031 531.434 129.843 528.218 125.693 524.93C123.753 523.408 121.823 521.863 119.902 520.297C100.203 504.328 81.5055 486.791 63.9464 467.816C52.4498 455.428 41.669 442.194 31.6727 428.195C-7.57073 372.62 -16.2264 322.544 39.7217 312.25C46.3457 311.035 52.7746 309.736 59.0083 308.354C68.0379 306.362 76.6795 304.21 84.9331 301.899C96.0507 298.797 106.496 295.433 116.269 291.808C119.556 290.593 122.768 289.354 125.905 288.09C172.28 269.39 203.319 245.003 224.447 218.544C228.031 214.065 231.335 209.532 234.359 204.946C238.985 197.964 243.188 190.625 246.936 182.981C252.111 172.36 256.456 161.234 259.923 149.734L260.114 149.103C276.925 93.43 271.81 41.7906 290.356 24.5073C369.633 -49.3802 468.33 55.8424 514.656 179.928C516.991 186.18 519.188 192.47 521.245 198.798C522.169 201.625 523.06 204.457 523.919 207.294C526.176 214.689 528.224 222.102 530.063 229.534C530.769 232.369 531.441 235.201 532.081 238.03C532.765 241.083 533.421 244.129 534.028 247.174C538.535 269.471 540.983 291.459 540.983 312.25Z" fill="url(#paint1_radial_311_160)" fill-opacity="0.6"/>
<path d="M540.983 312.25C541.061 386.493 516.066 457.88 471.251 511.405C468.549 514.652 465.774 517.822 462.927 520.913C458.588 525.651 454.104 530.205 449.474 534.576C406.162 575.545 352.091 598.566 295.985 599.927C294.116 599.976 292.239 600 290.356 600C245.61 600 189.331 572.561 138.257 534.576C134.031 531.434 129.843 528.218 125.693 524.93C123.753 523.408 121.823 521.863 119.902 520.297C100.203 504.328 81.5055 486.791 63.9464 467.816C52.4498 455.428 41.669 442.194 31.6727 428.195C-7.57073 372.62 -16.2264 322.544 39.7217 312.25C46.3457 311.035 52.7746 309.736 59.0083 308.354C68.0379 306.362 76.6795 304.21 84.9331 301.899C96.0507 298.797 106.496 295.433 116.269 291.808C119.556 290.593 122.768 289.354 125.905 288.09C172.28 269.39 203.319 245.003 224.447 218.544C228.031 214.065 231.335 209.532 234.359 204.946C238.985 197.964 243.188 190.625 246.936 182.981C252.111 172.36 256.456 161.234 259.923 149.734L260.114 149.103C276.925 93.43 271.81 41.7906 290.356 24.5073C369.633 -49.3802 468.33 55.8424 514.656 179.928C516.991 186.18 519.188 192.47 521.245 198.798C522.169 201.625 523.06 204.457 523.919 207.294C526.176 214.689 528.224 222.102 530.063 229.534C530.769 232.369 531.441 235.201 532.081 238.03C532.765 241.083 533.421 244.129 534.028 247.174C538.535 269.471 540.983 291.459 540.983 312.25Z" fill="url(#paint2_radial_311_160)" fill-opacity="0.6"/>
<path d="M540.983 312.25C541.061 386.493 516.066 457.88 471.251 511.405C468.549 514.652 465.774 517.822 462.927 520.913C458.588 525.651 454.104 530.205 449.474 534.576C406.162 575.545 352.091 598.566 295.985 599.927C294.116 599.976 292.239 600 290.356 600C245.61 600 189.331 572.561 138.257 534.576C134.031 531.434 129.843 528.218 125.693 524.93C123.753 523.408 121.823 521.863 119.902 520.297C100.203 504.328 81.5055 486.791 63.9464 467.816C52.4498 455.428 41.669 442.194 31.6727 428.195C-7.57073 372.62 -16.2264 322.544 39.7217 312.25C46.3457 311.035 52.7746 309.736 59.0083 308.354C68.0379 306.362 76.6795 304.21 84.9331 301.899C96.0507 298.797 106.496 295.433 116.269 291.808C119.556 290.593 122.768 289.354 125.905 288.09C172.28 269.39 203.319 245.003 224.447 218.544C228.031 214.065 231.335 209.532 234.359 204.946C238.985 197.964 243.188 190.625 246.936 182.981C252.111 172.36 256.456 161.234 259.923 149.734L260.114 149.103C276.925 93.43 271.81 41.7906 290.356 24.5073C369.633 -49.3802 468.33 55.8424 514.656 179.928C516.991 186.18 519.188 192.47 521.245 198.798C522.169 201.625 523.06 204.457 523.919 207.294C526.176 214.689 528.224 222.102 530.063 229.534C530.769 232.369 531.441 235.201 532.081 238.03C532.765 241.083 533.421 244.129 534.028 247.174C538.535 269.471 540.983 291.459 540.983 312.25Z" fill="url(#paint3_radial_311_160)" fill-opacity="0.6"/>
<path d="M540.983 312.25C541.061 386.493 516.066 457.88 471.251 511.405C468.549 514.652 465.774 517.822 462.927 520.913C458.588 525.651 454.104 530.205 449.474 534.576C406.162 575.545 352.091 598.566 295.985 599.927C294.116 599.976 292.239 600 290.356 600C245.61 600 189.331 572.561 138.257 534.576C134.031 531.434 129.843 528.218 125.693 524.93C123.753 523.408 121.823 521.863 119.902 520.297C100.203 504.328 81.5055 486.791 63.9464 467.816C52.4498 455.428 41.669 442.194 31.6727 428.195C-7.57073 372.62 -16.2264 322.544 39.7217 312.25C46.3457 311.035 52.7746 309.736 59.0083 308.354C68.0379 306.362 76.6795 304.21 84.9331 301.899C96.0507 298.797 106.496 295.433 116.269 291.808C119.556 290.593 122.768 289.354 125.905 288.09C172.28 269.39 203.319 245.003 224.447 218.544C228.031 214.065 231.335 209.532 234.359 204.946C238.985 197.964 243.188 190.625 246.936 182.981C252.111 172.36 256.456 161.234 259.923 149.734L260.114 149.103C276.925 93.43 271.81 41.7906 290.356 24.5073C369.633 -49.3802 468.33 55.8424 514.656 179.928C516.991 186.18 519.188 192.47 521.245 198.798C522.169 201.625 523.06 204.457 523.919 207.294C526.176 214.689 528.224 222.102 530.063 229.534C530.769 232.369 531.441 235.201 532.081 238.03C532.765 241.083 533.421 244.129 534.028 247.174C538.535 269.471 540.983 291.459 540.983 312.25Z" fill="url(#paint4_radial_311_160)" fill-opacity="0.6"/>
<path d="M540.983 312.25C541.061 386.493 516.066 457.88 471.251 511.405C468.549 514.652 465.774 517.822 462.927 520.913C458.588 525.651 454.104 530.205 449.474 534.576C406.162 575.545 352.091 598.566 295.985 599.927C294.116 599.976 292.239 600 290.356 600C245.61 600 189.331 572.561 138.257 534.576C134.031 531.434 129.843 528.218 125.693 524.93C123.753 523.408 121.823 521.863 119.902 520.297C100.203 504.328 81.5055 486.791 63.9464 467.816C52.4498 455.428 41.669 442.194 31.6727 428.195C-7.57073 372.62 -16.2264 322.544 39.7217 312.25C46.3457 311.035 52.7746 309.736 59.0083 308.354C68.0379 306.362 76.6795 304.21 84.9331 301.899C96.0507 298.797 106.496 295.433 116.269 291.808C119.556 290.593 122.768 289.354 125.905 288.09C172.28 269.39 203.319 245.003 224.447 218.544C228.031 214.065 231.335 209.532 234.359 204.946C238.985 197.964 243.188 190.625 246.936 182.981C252.111 172.36 256.456 161.234 259.923 149.734L260.114 149.103C276.925 93.43 271.81 41.7906 290.356 24.5073C369.633 -49.3802 468.33 55.8424 514.656 179.928C516.991 186.18 519.188 192.47 521.245 198.798C522.169 201.625 523.06 204.457 523.919 207.294C526.176 214.689 528.224 222.102 530.063 229.534C530.769 232.369 531.441 235.201 532.081 238.03C532.765 241.083 533.421 244.129 534.028 247.174C538.535 269.471 540.983 291.459 540.983 312.25Z" fill="url(#paint5_radial_311_160)" fill-opacity="0.4"/>
<path d="M540.983 312.25C541.061 386.493 516.066 457.88 471.251 511.405C468.549 514.652 465.774 517.822 462.927 520.913C458.588 525.651 454.104 530.205 449.474 534.576C406.162 575.545 352.091 598.566 295.985 599.927C294.116 599.976 292.239 600 290.356 600C245.61 600 189.331 572.561 138.257 534.576C134.031 531.434 129.843 528.218 125.693 524.93C123.753 523.408 121.823 521.863 119.902 520.297C100.203 504.328 81.5055 486.791 63.9464 467.816C52.4498 455.428 41.669 442.194 31.6727 428.195C-7.57073 372.62 -16.2264 322.544 39.7217 312.25C46.3457 311.035 52.7746 309.736 59.0083 308.354C68.0379 306.362 76.6795 304.21 84.9331 301.899C96.0507 298.797 106.496 295.433 116.269 291.808C119.556 290.593 122.768 289.354 125.905 288.09C172.28 269.39 203.319 245.003 224.447 218.544C228.031 214.065 231.335 209.532 234.359 204.946C238.985 197.964 243.188 190.625 246.936 182.981C252.111 172.36 256.456 161.234 259.923 149.734L260.114 149.103C276.925 93.43 271.81 41.7906 290.356 24.5073C369.633 -49.3802 468.33 55.8424 514.656 179.928C516.991 186.18 519.188 192.47 521.245 198.798C522.169 201.625 523.06 204.457 523.919 207.294C526.176 214.689 528.224 222.102 530.063 229.534C530.769 232.369 531.441 235.201 532.081 238.03C532.765 241.083 533.421 244.129 534.028 247.174C538.535 269.471 540.983 291.459 540.983 312.25Z" fill="url(#paint6_radial_311_160)" fill-opacity="0.6"/>
<path d="M470.867 511.085L470.868 511.084C515.602 457.656 540.561 386.384 540.483 312.25C540.483 291.498 538.04 269.542 533.538 247.273L533.537 247.272C532.932 244.231 532.276 241.19 531.593 238.139M470.867 511.085L532.081 238.03M470.867 511.085C468.17 514.326 465.401 517.489 462.559 520.574L462.558 520.575M470.867 511.085L462.558 520.575M531.593 238.139L532.081 238.03M531.593 238.139C531.593 238.14 531.593 238.14 531.593 238.14L532.081 238.03M531.593 238.139C530.954 235.314 530.282 232.486 529.578 229.655L529.578 229.654C527.741 222.231 525.695 214.826 523.441 207.44L523.44 207.439C522.583 204.605 521.693 201.777 520.77 198.954L520.77 198.953C518.714 192.632 516.521 186.348 514.188 180.103L514.656 179.928M532.081 238.03C531.441 235.201 530.769 232.369 530.063 229.534C528.224 222.102 526.176 214.689 523.919 207.294C523.06 204.457 522.169 201.625 521.245 198.798C519.188 192.47 516.991 186.18 514.656 179.928M514.656 179.928L514.188 180.103C491.044 118.11 454.83 60.8719 414.549 28.3668C394.411 12.1164 373.289 2.07378 352.3 0.669845C331.328 -0.732919 310.427 6.48408 290.697 24.873L290.356 24.5073M514.656 179.928C468.33 55.8424 369.633 -49.3802 290.356 24.5073M125.693 524.93C129.843 528.218 134.031 531.434 138.257 534.576C189.331 572.561 245.61 600 290.356 600C292.24 600 294.116 599.976 295.985 599.927C352.091 598.566 406.162 575.545 449.474 534.576C454.104 530.205 458.588 525.651 462.927 520.913C465.774 517.822 468.549 514.652 471.251 511.405C516.066 457.88 541.061 386.493 540.983 312.25C540.983 291.459 538.535 269.471 534.028 247.174L125.693 524.93ZM125.693 524.93C123.753 523.408 121.823 521.863 119.902 520.297L125.693 524.93ZM290.356 24.5073L290.697 24.8731C286.157 29.1042 283.032 35.4713 280.65 43.5787C278.27 51.682 276.65 61.4649 275.079 72.4796C274.638 75.5735 274.201 78.7637 273.752 82.0393C271.009 102.065 267.828 125.285 260.593 149.247L260.402 149.879C256.928 161.404 252.572 172.554 247.386 183.2L247.385 183.201C243.627 190.864 239.414 198.222 234.775 205.222L234.359 204.946C238.985 197.964 243.188 190.625 246.936 182.981C252.111 172.36 256.456 161.234 259.923 149.734L260.114 149.103C267.337 125.181 270.513 102.004 273.256 81.9768C276.898 55.3957 279.779 34.3642 290.356 24.5073ZM462.558 520.575C458.228 525.304 453.752 529.85 449.131 534.212L449.13 534.213M462.558 520.575L449.13 534.213M449.13 534.213C405.902 575.102 351.948 598.07 295.973 599.427L295.972 599.427M449.13 534.213L295.972 599.427M295.972 599.427C294.107 599.476 292.235 599.5 290.356 599.5C245.777 599.5 189.607 572.143 138.555 534.175C134.334 531.035 130.15 527.823 126.004 524.538L126.002 524.537M295.972 599.427L126.002 524.537M126.002 524.537C124.064 523.016 122.136 521.474 120.217 519.91L120.216 519.909M126.002 524.537L120.216 519.909M120.216 519.909C100.537 503.955 81.8566 486.435 64.3133 467.476L64.3128 467.476M120.216 519.909L64.3128 467.476M64.3128 467.476C52.8313 455.104 42.0642 441.887 32.0802 427.906M64.3128 467.476L32.0802 427.906M32.0802 427.906C12.473 400.138 0.575605 373.832 0.500359 353.24C0.462806 342.963 3.36888 334.132 9.71046 327.232C16.058 320.325 25.8945 315.302 39.8122 312.741C46.4415 311.526 52.8762 310.226 59.116 308.842C59.1162 308.842 59.1164 308.842 59.1165 308.842L59.0083 308.354C68.0379 306.362 76.6795 304.21 84.9331 301.899M32.0802 427.906L116.269 291.808C106.496 295.433 96.0507 298.797 84.9331 301.899M84.9331 301.899L85.0674 302.381C85.0676 302.381 85.0677 302.381 85.0679 302.381L84.9331 301.899Z" stroke="url(#paint7_linear_311_160)" stroke-opacity="0.3"/>
<path d="M295.985 599.927C294.116 599.976 292.239 600 290.356 600C245.61 600 189.33 572.561 138.257 534.576C134.031 531.434 129.843 528.218 125.693 524.93L129.333 499.499L239.529 482.702L294.835 531.255L295.985 599.927Z" fill="#353535"/>
<path d="M301.29 145.823H285.587C285.101 145.823 284.634 146.045 284.291 146.44C283.947 146.835 283.753 147.37 283.753 147.928V165.965C283.753 166.241 283.801 166.514 283.893 166.769C283.986 167.024 284.121 167.256 284.291 167.45C284.462 167.645 284.664 167.8 284.886 167.905C285.108 168.01 285.347 168.063 285.587 168.063H301.29C301.775 168.063 302.241 167.842 302.585 167.449C302.929 167.056 303.123 166.522 303.124 165.965V147.928C303.123 147.37 302.929 146.836 302.586 146.441C302.242 146.047 301.776 145.824 301.29 145.823Z" fill="white"/>
<path d="M301.29 176.559H285.587C285.101 176.559 284.634 176.781 284.291 177.176C283.947 177.57 283.753 178.106 283.753 178.664V196.701C283.753 196.977 283.801 197.25 283.893 197.505C283.986 197.76 284.121 197.991 284.291 198.186C284.462 198.381 284.664 198.535 284.886 198.641C285.108 198.746 285.347 198.799 285.587 198.798H301.29C301.775 198.799 302.241 198.578 302.585 198.185C302.929 197.792 303.123 197.258 303.124 196.701V178.664C303.123 178.106 302.929 177.572 302.586 177.177C302.242 176.782 301.776 176.56 301.29 176.559Z" fill="#E6E6E6"/>
<path d="M301.29 207.294H285.587C285.101 207.295 284.634 207.517 284.291 207.911C283.947 208.306 283.753 208.842 283.753 209.4V227.429C283.753 227.705 283.8 227.979 283.892 228.235C283.984 228.491 284.119 228.723 284.289 228.919C284.46 229.114 284.662 229.269 284.885 229.375C285.107 229.481 285.346 229.535 285.587 229.534H301.29C301.777 229.534 302.243 229.312 302.587 228.917C302.931 228.522 303.124 227.987 303.124 227.429V209.4C303.123 208.842 302.929 208.307 302.586 207.913C302.242 207.518 301.776 207.296 301.29 207.294Z" fill="#E6E6E6"/>
<path d="M303.096 239.763C303.018 239.278 302.795 238.84 302.465 238.523C302.135 238.207 301.72 238.033 301.29 238.03H285.587C285.101 238.03 284.634 238.252 284.291 238.647C283.947 239.042 283.753 239.577 283.753 240.136V258.164C283.753 258.441 283.8 258.715 283.892 258.971C283.984 259.226 284.119 259.459 284.289 259.654C284.46 259.85 284.662 260.005 284.885 260.111C285.107 260.216 285.346 260.271 285.587 260.27H301.29C301.777 260.27 302.243 260.048 302.587 259.653C302.931 259.258 303.124 258.723 303.124 258.164V240.136C303.126 240.011 303.116 239.886 303.096 239.763Z" fill="#E6E6E6"/>
<path d="M302.003 268.928C301.777 268.821 301.535 268.766 301.29 268.766H285.587C285.346 268.765 285.107 268.819 284.885 268.925C284.662 269.031 284.46 269.186 284.289 269.381C284.119 269.577 283.984 269.809 283.892 270.065C283.8 270.321 283.753 270.595 283.753 270.872V288.9C283.752 289.177 283.799 289.451 283.891 289.707C283.982 289.963 284.117 290.196 284.288 290.392C284.458 290.588 284.661 290.743 284.884 290.848C285.107 290.954 285.346 291.007 285.587 291.006H301.29C301.777 291.006 302.243 290.784 302.587 290.389C302.931 289.994 303.124 289.459 303.124 288.9V270.872C303.124 270.457 303.017 270.052 302.817 269.707C302.618 269.361 302.335 269.09 302.003 268.928Z" fill="#E6E6E6"/>
<path d="M334.276 145.823H318.573C318.087 145.823 317.621 146.045 317.277 146.44C316.933 146.835 316.739 147.37 316.739 147.928V165.965C316.739 166.241 316.787 166.514 316.879 166.769C316.972 167.024 317.107 167.256 317.277 167.45C317.448 167.645 317.65 167.8 317.872 167.905C318.095 168.01 318.333 168.063 318.573 168.063H334.276C334.762 168.063 335.227 167.842 335.571 167.449C335.915 167.056 336.109 166.522 336.111 165.965V147.928C336.109 147.37 335.915 146.836 335.572 146.441C335.228 146.047 334.762 145.824 334.276 145.823Z" fill="#E6E6E6"/>
<path d="M334.276 176.559H318.573C318.087 176.559 317.621 176.781 317.277 177.176C316.933 177.57 316.739 178.106 316.739 178.664V196.701C316.739 196.977 316.787 197.25 316.879 197.505C316.972 197.76 317.107 197.991 317.277 198.186C317.448 198.381 317.65 198.535 317.872 198.641C318.095 198.746 318.333 198.799 318.573 198.798H334.276C334.762 198.799 335.227 198.578 335.571 198.185C335.915 197.792 336.109 197.258 336.111 196.701V178.664C336.109 178.106 335.915 177.572 335.572 177.177C335.228 176.782 334.762 176.56 334.276 176.559Z" fill="#39BA8C"/>
<path d="M334.276 207.294H318.573C318.087 207.295 317.621 207.517 317.277 207.911C316.933 208.306 316.739 208.842 316.739 209.4V227.429C316.739 227.705 316.786 227.979 316.878 228.235C316.97 228.491 317.105 228.723 317.275 228.919C317.446 229.114 317.648 229.269 317.871 229.375C318.094 229.481 318.332 229.535 318.573 229.534H334.276C334.763 229.534 335.229 229.312 335.573 228.917C335.917 228.522 336.11 227.987 336.111 227.429V209.4C336.109 208.842 335.915 208.307 335.572 207.913C335.228 207.518 334.762 207.296 334.276 207.294Z" fill="#39BA8C"/>
<path d="M334.276 238.03H318.573C318.189 238.03 317.814 238.17 317.503 238.429C317.191 238.687 316.958 239.052 316.838 239.472C316.773 239.685 316.739 239.91 316.739 240.136V258.164C316.739 258.441 316.786 258.715 316.878 258.971C316.97 259.226 317.105 259.459 317.275 259.654C317.446 259.85 317.648 260.005 317.871 260.111C318.094 260.216 318.332 260.271 318.573 260.27H334.276C334.763 260.27 335.229 260.048 335.573 259.653C335.917 259.258 336.11 258.723 336.111 258.164V240.136C336.109 239.578 335.915 239.043 335.572 238.649C335.228 238.254 334.762 238.032 334.276 238.03Z" fill="#39BA8C"/>
<path d="M334.276 268.766H318.573C318.332 268.765 318.094 268.819 317.871 268.925C317.648 269.031 317.446 269.186 317.275 269.381C317.105 269.577 316.97 269.809 316.878 270.065C316.786 270.321 316.739 270.595 316.739 270.872V288.9C316.739 289.177 316.786 289.451 316.878 289.707C316.97 289.962 317.105 290.195 317.275 290.39C317.446 290.586 317.648 290.741 317.871 290.847C318.094 290.952 318.332 291.006 318.573 291.006H334.276C334.763 291.006 335.229 290.784 335.573 290.389C335.917 289.994 336.11 289.459 336.111 288.9V270.872C336.11 270.313 335.917 269.778 335.573 269.383C335.229 268.988 334.763 268.766 334.276 268.766Z" fill="#E6E6E6"/>
<path d="M367.263 145.823H351.56C351.073 145.823 350.607 146.045 350.263 146.44C349.919 146.835 349.726 147.37 349.726 147.928V165.965C349.726 166.241 349.773 166.514 349.866 166.769C349.958 167.024 350.093 167.256 350.264 167.45C350.434 167.645 350.636 167.8 350.859 167.905C351.081 168.01 351.319 168.063 351.56 168.063H367.263C367.748 168.063 368.213 167.842 368.557 167.449C368.901 167.056 369.095 166.522 369.097 165.965V147.928C369.095 147.37 368.902 146.836 368.558 146.441C368.214 146.047 367.749 145.824 367.263 145.823Z" fill="#39BA8C"/>
<path d="M367.263 176.559H351.56C351.073 176.559 350.607 176.781 350.263 177.176C349.919 177.57 349.726 178.106 349.726 178.664V196.701C349.726 196.977 349.773 197.25 349.866 197.505C349.958 197.76 350.093 197.991 350.264 198.186C350.434 198.381 350.636 198.535 350.859 198.641C351.081 198.746 351.319 198.799 351.56 198.798H367.263C367.748 198.799 368.213 198.578 368.557 198.185C368.901 197.792 369.095 197.258 369.097 196.701V178.664C369.095 178.106 368.902 177.572 368.558 177.177C368.214 176.782 367.749 176.56 367.263 176.559Z" fill="#39BA8C"/>
<path d="M367.263 207.294H351.56C351.073 207.295 350.607 207.517 350.263 207.911C349.919 208.306 349.726 208.842 349.726 209.4V227.429C349.725 227.705 349.772 227.979 349.864 228.235C349.956 228.491 350.091 228.723 350.262 228.919C350.432 229.114 350.634 229.269 350.857 229.375C351.08 229.481 351.319 229.535 351.56 229.534H367.263C367.749 229.534 368.215 229.312 368.559 228.917C368.903 228.522 369.097 227.987 369.097 227.429V209.4C369.095 208.842 368.902 208.307 368.558 207.913C368.214 207.518 367.749 207.296 367.263 207.294Z" fill="#E6E6E6"/>
<path d="M367.263 238.03H351.56C351.073 238.03 350.607 238.252 350.263 238.647C349.919 239.042 349.726 239.577 349.726 240.136V258.164C349.725 258.441 349.772 258.715 349.864 258.971C349.956 259.226 350.091 259.459 350.262 259.654C350.432 259.85 350.634 260.005 350.857 260.111C351.08 260.216 351.319 260.271 351.56 260.27H367.263C367.749 260.27 368.215 260.048 368.559 259.653C368.903 259.258 369.097 258.723 369.097 258.164V240.136C369.095 239.578 368.902 239.043 368.558 238.649C368.214 238.254 367.749 238.032 367.263 238.03Z" fill="#39BA8C"/>
<path d="M367.263 268.766H351.56C351.319 268.765 351.08 268.819 350.857 268.925C350.634 269.031 350.432 269.186 350.262 269.381C350.091 269.577 349.956 269.809 349.864 270.065C349.772 270.321 349.725 270.595 349.726 270.872V288.9C349.725 289.177 349.772 289.451 349.864 289.707C349.956 289.962 350.091 290.195 350.262 290.39C350.432 290.586 350.634 290.741 350.857 290.847C351.08 290.952 351.319 291.006 351.56 291.006H367.263C367.749 291.006 368.215 290.784 368.559 290.389C368.903 289.994 369.097 289.459 369.097 288.9V270.872C369.097 270.313 368.903 269.778 368.559 269.383C368.215 268.988 367.749 268.766 367.263 268.766Z" fill="#39BA8C"/>
<path d="M400.249 145.823H384.546C384.059 145.823 383.593 146.045 383.249 146.44C382.905 146.835 382.712 147.37 382.712 147.928V165.965C382.712 166.241 382.76 166.514 382.852 166.769C382.944 167.024 383.079 167.256 383.25 167.45C383.42 167.645 383.622 167.8 383.845 167.905C384.067 168.01 384.305 168.063 384.546 168.063H400.249C400.734 168.063 401.2 167.842 401.543 167.449C401.887 167.056 402.081 166.522 402.083 165.965V147.928C402.082 147.37 401.888 146.836 401.544 146.441C401.2 146.047 400.735 145.824 400.249 145.823Z" fill="#39BA8C"/>
<path d="M400.249 176.559H384.546C384.059 176.559 383.593 176.781 383.249 177.176C382.905 177.57 382.712 178.106 382.712 178.664V196.701C382.712 196.977 382.76 197.25 382.852 197.505C382.944 197.76 383.079 197.991 383.25 198.186C383.42 198.381 383.622 198.535 383.845 198.641C384.067 198.746 384.305 198.799 384.546 198.798H400.249C400.734 198.799 401.2 198.578 401.543 198.185C401.887 197.792 402.081 197.258 402.083 196.701V178.664C402.082 178.106 401.888 177.572 401.544 177.177C401.201 176.782 400.735 176.56 400.249 176.559Z" fill="white"/>
<path d="M400.249 207.294H384.546C384.059 207.295 383.593 207.517 383.249 207.911C382.905 208.306 382.712 208.842 382.712 209.4V227.429C382.711 227.705 382.758 227.979 382.85 228.235C382.942 228.491 383.077 228.723 383.248 228.919C383.418 229.114 383.621 229.269 383.843 229.375C384.066 229.481 384.305 229.535 384.546 229.534H400.249C400.735 229.534 401.202 229.312 401.545 228.917C401.889 228.522 402.083 227.987 402.083 227.429V209.4C402.082 208.842 401.888 208.307 401.544 207.913C401.201 207.518 400.735 207.296 400.249 207.294Z" fill="white"/>
<path d="M400.249 238.03H384.546C384.059 238.03 383.593 238.252 383.249 238.647C382.905 239.042 382.712 239.577 382.712 240.136V258.164C382.711 258.441 382.758 258.715 382.85 258.971C382.942 259.226 383.077 259.459 383.248 259.655C383.418 259.85 383.621 260.005 383.843 260.111C384.066 260.217 384.305 260.271 384.546 260.27H400.249C400.735 260.27 401.202 260.048 401.545 259.653C401.889 259.258 402.083 258.723 402.083 258.164V240.136C402.082 239.578 401.888 239.043 401.544 238.649C401.201 238.254 400.735 238.032 400.249 238.03Z" fill="#E6E6E6"/>
<path d="M400.249 268.766H384.546C384.305 268.765 384.066 268.819 383.843 268.925C383.621 269.031 383.418 269.186 383.248 269.381C383.077 269.577 382.942 269.809 382.85 270.065C382.758 270.321 382.711 270.595 382.712 270.872V288.9C382.711 289.177 382.758 289.451 382.85 289.707C382.942 289.962 383.077 290.195 383.248 290.39C383.418 290.586 383.621 290.741 383.843 290.847C384.066 290.952 384.305 291.006 384.546 291.006H400.249C400.735 291.006 401.202 290.784 401.546 290.389C401.889 289.994 402.083 289.459 402.083 288.9V270.872C402.083 270.313 401.889 269.778 401.545 269.383C401.202 268.988 400.735 268.766 400.249 268.766Z" fill="#39BA8C"/>
<path d="M433.235 145.823H417.525C417.04 145.825 416.575 146.047 416.232 146.442C415.89 146.837 415.698 147.371 415.698 147.928V165.965C415.698 166.521 415.89 167.055 416.233 167.448C416.576 167.841 417.04 168.062 417.525 168.063H433.235C433.72 168.063 434.186 167.842 434.53 167.449C434.873 167.056 435.067 166.522 435.069 165.965V147.928C435.068 147.37 434.874 146.836 434.53 146.441C434.187 146.047 433.721 145.824 433.235 145.823Z" fill="white"/>
<path d="M433.235 176.559H417.525C417.04 176.56 416.575 176.783 416.232 177.178C415.89 177.573 415.698 178.107 415.698 178.664V196.701C415.698 197.257 415.89 197.791 416.233 198.184C416.576 198.577 417.04 198.798 417.525 198.798H433.235C433.72 198.799 434.186 198.578 434.53 198.185C434.873 197.792 435.067 197.258 435.069 196.701V178.664C435.068 178.106 434.874 177.572 434.53 177.177C434.187 176.782 433.721 176.56 433.235 176.559Z" fill="white"/>
<path d="M433.235 207.294H417.525C417.04 207.296 416.575 207.519 416.232 207.914C415.89 208.308 415.698 208.843 415.698 209.4V227.429C415.697 227.705 415.744 227.978 415.835 228.233C415.927 228.489 416.061 228.721 416.231 228.916C416.401 229.112 416.602 229.267 416.824 229.373C417.046 229.479 417.284 229.534 417.525 229.534H433.235C433.721 229.534 434.188 229.312 434.532 228.917C434.876 228.522 435.069 227.987 435.069 227.429V209.4C435.068 208.842 434.874 208.307 434.53 207.913C434.187 207.518 433.721 207.296 433.235 207.294Z" fill="white"/>
<path d="M433.235 238.03H417.525C417.04 238.032 416.575 238.255 416.232 238.65C415.89 239.044 415.698 239.579 415.698 240.136V258.164C415.697 258.44 415.744 258.714 415.835 258.969C415.927 259.224 416.061 259.457 416.231 259.652C416.401 259.848 416.602 260.003 416.824 260.109C417.046 260.215 417.284 260.27 417.525 260.27H433.235C433.721 260.27 434.188 260.048 434.532 259.653C434.876 259.258 435.069 258.723 435.069 258.164V240.136C435.068 239.578 434.874 239.043 434.53 238.649C434.187 238.254 433.721 238.032 433.235 238.03Z" fill="#39BA8C"/>
<path d="M433.235 268.766H417.525C417.284 268.766 417.046 268.821 416.824 268.927C416.602 269.033 416.401 269.188 416.231 269.384C416.061 269.579 415.927 269.811 415.835 270.067C415.744 270.322 415.697 270.596 415.698 270.872V288.9C415.697 289.176 415.744 289.45 415.835 289.705C415.927 289.96 416.061 290.192 416.231 290.388C416.401 290.584 416.602 290.739 416.824 290.845C417.046 290.951 417.284 291.006 417.525 291.006H433.235C433.721 291.006 434.188 290.784 434.532 290.389C434.876 289.994 435.069 289.459 435.069 288.9V270.872C435.069 270.313 434.876 269.778 434.532 269.383C434.188 268.988 433.721 268.766 433.235 268.766Z" fill="#E6E6E6"/>
<path d="M466.221 145.823H450.511C450.026 145.825 449.561 146.047 449.219 146.442C448.876 146.837 448.684 147.371 448.684 147.928V165.965C448.684 166.521 448.877 167.055 449.219 167.448C449.562 167.841 450.027 168.062 450.511 168.063H466.221C466.707 168.063 467.172 167.842 467.516 167.449C467.86 167.056 468.054 166.522 468.055 165.965V147.928C468.054 147.37 467.86 146.836 467.517 146.441C467.173 146.047 466.707 145.824 466.221 145.823Z" fill="white"/>
<path d="M466.221 176.559H450.511C450.026 176.56 449.561 176.783 449.219 177.178C448.876 177.573 448.684 178.107 448.684 178.664V196.701C448.684 197.257 448.877 197.791 449.219 198.184C449.562 198.577 450.027 198.798 450.511 198.798H466.221C466.707 198.799 467.172 198.578 467.516 198.185C467.86 197.792 468.054 197.258 468.055 196.701V178.664C468.054 178.106 467.86 177.572 467.517 177.177C467.173 176.783 466.707 176.56 466.221 176.559Z" fill="white"/>
<path d="M466.221 207.294H450.511C450.026 207.296 449.561 207.519 449.219 207.914C448.876 208.308 448.684 208.843 448.684 209.4V227.429C448.683 227.705 448.73 227.978 448.822 228.233C448.913 228.489 449.048 228.721 449.217 228.916C449.387 229.112 449.589 229.267 449.811 229.373C450.033 229.479 450.271 229.534 450.511 229.534H466.221C466.708 229.534 467.174 229.312 467.518 228.917C467.862 228.522 468.055 227.987 468.055 227.429V209.4C468.054 208.842 467.86 208.307 467.517 207.913C467.173 207.518 466.707 207.296 466.221 207.294Z" fill="#39BA8C"/>
<path d="M466.221 238.03H450.511C450.026 238.032 449.561 238.255 449.219 238.65C448.876 239.044 448.684 239.579 448.684 240.136V258.164C448.683 258.44 448.73 258.714 448.822 258.969C448.913 259.224 449.048 259.457 449.217 259.652C449.387 259.848 449.589 260.003 449.811 260.109C450.033 260.215 450.271 260.27 450.511 260.27H466.221C466.708 260.27 467.174 260.048 467.518 259.653C467.862 259.258 468.055 258.723 468.055 258.164V240.136C468.054 239.578 467.86 239.043 467.517 238.649C467.173 238.254 466.707 238.032 466.221 238.03Z" fill="#E6E6E6"/>
<path d="M466.221 268.766H450.511C450.271 268.766 450.033 268.821 449.811 268.927C449.589 269.033 449.387 269.188 449.217 269.384C449.048 269.579 448.913 269.811 448.822 270.067C448.73 270.322 448.683 270.596 448.684 270.872V288.9C448.683 289.176 448.73 289.45 448.822 289.705C448.913 289.96 449.048 290.192 449.217 290.388C449.387 290.584 449.589 290.739 449.811 290.845C450.033 290.951 450.271 291.006 450.511 291.006H466.221C466.708 291.006 467.174 290.784 467.518 290.389C467.862 289.994 468.055 289.459 468.055 288.9V270.872C468.055 270.313 467.862 269.778 467.518 269.383C467.174 268.988 466.708 268.766 466.221 268.766Z" fill="white"/>
<path d="M499.207 145.823H483.497C483.012 145.825 482.547 146.047 482.205 146.442C481.862 146.837 481.67 147.371 481.67 147.928V165.965C481.67 166.521 481.863 167.055 482.205 167.448C482.548 167.841 483.013 168.062 483.497 168.063H499.207C499.693 168.063 500.158 167.842 500.502 167.449C500.846 167.056 501.04 166.522 501.041 165.965V147.928C501.04 147.37 500.846 146.836 500.503 146.441C500.159 146.047 499.693 145.824 499.207 145.823Z" fill="#39BA8C"/>
<path d="M499.207 176.559H483.497C483.012 176.56 482.547 176.783 482.205 177.178C481.862 177.573 481.67 178.107 481.67 178.664V196.701C481.67 197.257 481.863 197.791 482.205 198.184C482.548 198.577 483.013 198.798 483.497 198.798H499.207C499.693 198.799 500.158 198.578 500.502 198.185C500.846 197.792 501.04 197.258 501.041 196.701V178.664C501.04 178.106 500.846 177.572 500.503 177.177C500.159 176.783 499.693 176.56 499.207 176.559Z" fill="#39BA8C"/>
<path d="M499.207 207.294H483.497C483.012 207.296 482.547 207.519 482.205 207.914C481.862 208.308 481.67 208.843 481.67 209.4V227.429C481.67 227.705 481.716 227.978 481.808 228.233C481.899 228.489 482.034 228.721 482.203 228.916C482.373 229.112 482.575 229.267 482.797 229.373C483.019 229.479 483.257 229.534 483.497 229.534H499.207C499.694 229.534 500.16 229.312 500.504 228.917C500.848 228.522 501.041 227.987 501.041 227.429V209.4C501.04 208.842 500.846 208.307 500.503 207.913C500.159 207.518 499.693 207.296 499.207 207.294Z" fill="#E6E6E6"/>
<path d="M499.207 238.03H483.497C483.012 238.032 482.547 238.255 482.205 238.65C481.862 239.044 481.67 239.579 481.67 240.136V258.164C481.669 258.44 481.716 258.714 481.808 258.969C481.899 259.224 482.034 259.457 482.203 259.652C482.373 259.848 482.575 260.003 482.797 260.109C483.019 260.215 483.257 260.27 483.497 260.27H499.207C499.694 260.27 500.16 260.048 500.504 259.653C500.848 259.258 501.041 258.723 501.041 258.164V240.136C501.04 239.578 500.846 239.043 500.503 238.649C500.159 238.254 499.693 238.032 499.207 238.03Z" fill="white"/>
<path d="M499.207 268.766H483.497C483.257 268.766 483.019 268.821 482.797 268.927C482.575 269.033 482.373 269.188 482.203 269.384C482.034 269.579 481.899 269.811 481.808 270.067C481.716 270.322 481.669 270.596 481.67 270.872V288.9C481.669 289.176 481.716 289.45 481.808 289.705C481.899 289.96 482.034 290.192 482.203 290.388C482.373 290.584 482.575 290.739 482.797 290.845C483.019 290.951 483.257 291.006 483.497 291.006H499.207C499.694 291.006 500.16 290.784 500.504 290.389C500.848 289.994 501.041 289.459 501.041 288.9V270.872C501.041 270.313 500.848 269.778 500.504 269.383C500.16 268.988 499.694 268.766 499.207 268.766Z" fill="#39BA8C"/>
<path d="M532.193 145.823H516.483C515.998 145.825 515.533 146.047 515.191 146.442C514.848 146.837 514.656 147.371 514.656 147.928V165.965C514.656 166.521 514.849 167.055 515.191 167.448C515.534 167.841 515.999 168.062 516.483 168.063H532.193C532.679 168.063 533.144 167.842 533.488 167.449C533.832 167.056 534.026 166.522 534.028 165.965V147.928C534.026 147.37 533.832 146.836 533.489 146.441C533.145 146.047 532.679 145.824 532.193 145.823Z" fill="#39BA8C"/>
<path d="M532.193 176.559H516.483C515.998 176.56 515.533 176.783 515.191 177.178C514.848 177.573 514.656 178.107 514.656 178.664V196.701C514.656 197.257 514.849 197.791 515.191 198.184C515.534 198.577 515.999 198.798 516.483 198.798H532.193C532.679 198.799 533.144 198.578 533.488 198.185C533.832 197.792 534.026 197.258 534.028 196.701V178.664C534.026 178.106 533.832 177.572 533.489 177.177C533.145 176.782 532.679 176.56 532.193 176.559Z" fill="#39BA8C"/>
<path d="M532.193 207.294H516.483C515.998 207.296 515.533 207.519 515.191 207.914C514.848 208.308 514.656 208.843 514.656 209.4V227.429C514.656 227.705 514.702 227.978 514.794 228.233C514.885 228.489 515.02 228.721 515.189 228.916C515.359 229.112 515.561 229.267 515.783 229.373C516.005 229.479 516.243 229.534 516.483 229.534H532.193C532.68 229.534 533.146 229.312 533.49 228.917C533.834 228.522 534.027 227.987 534.028 227.429V209.4C534.026 208.842 533.832 208.307 533.489 207.913C533.145 207.518 532.679 207.296 532.193 207.294Z" fill="#E6E6E6"/>
<path d="M532.193 238.03H516.483C515.998 238.032 515.533 238.255 515.191 238.65C514.848 239.044 514.656 239.579 514.656 240.136V258.164C514.656 258.44 514.702 258.714 514.794 258.969C514.885 259.224 515.02 259.457 515.189 259.652C515.359 259.848 515.561 260.003 515.783 260.109C516.005 260.215 516.243 260.27 516.483 260.27H532.193C532.68 260.27 533.146 260.048 533.49 259.653C533.834 259.258 534.027 258.723 534.028 258.164V240.136C534.026 239.578 533.832 239.043 533.489 238.649C533.145 238.254 532.679 238.032 532.193 238.03Z" fill="#39BA8C"/>
<path d="M532.193 268.766H516.483C516.243 268.766 516.005 268.821 515.783 268.927C515.561 269.033 515.359 269.188 515.189 269.384C515.02 269.579 514.885 269.811 514.794 270.067C514.702 270.322 514.656 270.596 514.656 270.872V288.9C514.656 289.176 514.702 289.45 514.794 289.705C514.885 289.96 515.02 290.192 515.189 290.388C515.359 290.584 515.561 290.739 515.783 290.845C516.005 290.951 516.243 291.006 516.483 291.006H532.193C532.68 291.006 533.146 290.784 533.49 290.389C533.834 289.994 534.027 289.458 534.028 288.9V270.872C534.027 270.313 533.834 269.778 533.49 269.383C533.146 268.988 532.68 268.766 532.193 268.766Z" fill="#39BA8C"/>
<path d="M565.18 145.823H549.47C548.984 145.825 548.52 146.047 548.177 146.442C547.835 146.837 547.642 147.371 547.643 147.928V165.965C547.643 166.521 547.835 167.055 548.178 167.448C548.52 167.841 548.985 168.062 549.47 168.063H565.18C565.665 168.063 566.131 167.842 566.474 167.449C566.818 167.056 567.012 166.522 567.014 165.965V147.928C567.012 147.37 566.819 146.836 566.475 146.441C566.131 146.047 565.666 145.824 565.18 145.823Z" fill="#E6E6E6"/>
<path d="M565.18 176.559H549.47C548.984 176.56 548.52 176.783 548.177 177.178C547.835 177.573 547.642 178.107 547.643 178.664V196.701C547.643 197.257 547.835 197.791 548.178 198.184C548.52 198.577 548.985 198.798 549.47 198.798H565.18C565.665 198.799 566.131 198.578 566.474 198.185C566.818 197.792 567.012 197.258 567.014 196.701V178.664C567.012 178.106 566.819 177.572 566.475 177.177C566.131 176.782 565.666 176.56 565.18 176.559Z" fill="#39BA8C"/>
<path d="M565.18 207.294H549.47C548.984 207.296 548.52 207.519 548.177 207.914C547.835 208.308 547.642 208.843 547.643 209.4V227.429C547.642 227.705 547.689 227.978 547.78 228.233C547.872 228.489 548.006 228.721 548.176 228.916C548.345 229.112 548.547 229.267 548.769 229.373C548.991 229.479 549.229 229.534 549.47 229.534H565.18C565.666 229.534 566.132 229.312 566.476 228.917C566.82 228.522 567.014 227.987 567.014 227.429V209.4C567.012 208.842 566.819 208.307 566.475 207.913C566.131 207.518 565.666 207.296 565.18 207.294Z" fill="#39BA8C"/>
<path d="M565.18 238.03H549.47C548.984 238.032 548.52 238.255 548.177 238.65C547.835 239.044 547.642 239.579 547.643 240.136V258.164C547.642 258.44 547.689 258.714 547.78 258.969C547.872 259.224 548.006 259.457 548.176 259.652C548.345 259.848 548.547 260.003 548.769 260.109C548.991 260.215 549.229 260.27 549.47 260.27H565.18C565.666 260.27 566.133 260.048 566.476 259.653C566.82 259.258 567.014 258.723 567.014 258.164V240.136C567.012 239.578 566.819 239.043 566.475 238.649C566.131 238.254 565.666 238.032 565.18 238.03Z" fill="#39BA8C"/>
<path d="M565.18 268.766H549.47C549.229 268.766 548.991 268.821 548.769 268.927C548.547 269.033 548.345 269.188 548.176 269.384C548.006 269.579 547.872 269.811 547.78 270.067C547.689 270.322 547.642 270.596 547.643 270.872V288.9C547.642 289.176 547.689 289.45 547.78 289.705C547.872 289.96 548.006 290.192 548.176 290.388C548.345 290.584 548.547 290.739 548.769 290.845C548.991 290.951 549.229 291.006 549.47 291.006H565.18C565.666 291.006 566.133 290.784 566.476 290.389C566.82 289.994 567.014 289.458 567.014 288.9V270.872C567.014 270.313 566.82 269.778 566.476 269.383C566.133 268.988 565.666 268.766 565.18 268.766Z" fill="#E6E6E6"/>
<path d="M598.166 145.823H582.456C581.971 145.825 581.506 146.047 581.163 146.442C580.821 146.837 580.629 147.371 580.629 147.928V165.965C580.629 166.521 580.821 167.055 581.164 167.448C581.507 167.841 581.971 168.062 582.456 168.063H598.166C598.651 168.063 599.117 167.842 599.461 167.449C599.804 167.056 599.998 166.522 600 165.965V147.928C599.999 147.37 599.805 146.836 599.461 146.441C599.118 146.047 598.652 145.824 598.166 145.823Z" fill="#E6E6E6"/>
<path d="M598.166 176.559H582.456C581.971 176.56 581.506 176.783 581.163 177.178C580.821 177.573 580.629 178.107 580.629 178.664V196.701C580.629 197.257 580.821 197.791 581.164 198.184C581.507 198.577 581.971 198.798 582.456 198.798H598.166C598.651 198.799 599.117 198.578 599.461 198.185C599.804 197.792 599.998 197.258 600 196.701V178.664C599.999 178.106 599.805 177.572 599.461 177.177C599.118 176.782 598.652 176.56 598.166 176.559Z" fill="#E6E6E6"/>
<path d="M598.166 207.294H582.456C581.971 207.296 581.506 207.519 581.163 207.914C580.821 208.308 580.629 208.843 580.629 209.4V227.429C580.628 227.705 580.675 227.978 580.766 228.233C580.858 228.489 580.992 228.721 581.162 228.916C581.332 229.112 581.533 229.267 581.755 229.373C581.977 229.479 582.215 229.534 582.456 229.534H598.166C598.652 229.534 599.119 229.312 599.463 228.917C599.806 228.522 600 227.987 600 227.429V209.4C599.999 208.842 599.805 208.307 599.461 207.913C599.118 207.518 598.652 207.296 598.166 207.294Z" fill="#39BA8C"/>
<path d="M598.166 238.03H582.456C581.971 238.032 581.506 238.255 581.163 238.65C580.821 239.044 580.629 239.579 580.629 240.136V258.164C580.628 258.44 580.675 258.714 580.766 258.969C580.858 259.224 580.992 259.457 581.162 259.652C581.332 259.848 581.533 260.003 581.755 260.109C581.977 260.215 582.215 260.27 582.456 260.27H598.166C598.652 260.27 599.119 260.048 599.463 259.653C599.806 259.258 600 258.723 600 258.164V240.136C599.999 239.578 599.805 239.043 599.461 238.649C599.118 238.254 598.652 238.032 598.166 238.03Z" fill="#E6E6E6"/>
<path d="M598.166 268.766H582.456C582.215 268.766 581.977 268.821 581.755 268.927C581.533 269.033 581.332 269.188 581.162 269.384C580.992 269.579 580.858 269.811 580.766 270.067C580.675 270.322 580.628 270.596 580.629 270.872V288.9C580.628 289.176 580.675 289.45 580.766 289.705C580.858 289.96 580.992 290.192 581.162 290.388C581.332 290.584 581.533 290.739 581.755 290.845C581.977 290.951 582.215 291.006 582.456 291.006H598.166C598.652 291.006 599.119 290.784 599.463 290.389C599.806 289.994 600 289.458 600 288.9V270.872C600 270.313 599.806 269.778 599.463 269.383C599.119 268.988 598.652 268.766 598.166 268.766Z" fill="#E6E6E6"/>
<path d="M237.093 534.577H236.656L237.03 534.521L237.093 534.577Z" fill="#2F2E41"/>
<path d="M199.507 198.47C226.126 198.47 247.704 173.697 247.704 143.136C247.704 112.576 226.126 87.8023 199.507 87.8023C172.889 87.8023 151.311 112.576 151.311 143.136C151.311 173.697 172.889 198.47 199.507 198.47Z" fill="#FFB6B6"/>
<path d="M241.715 102.566C241.715 102.566 254.32 74.8994 226.588 72.3842C226.588 72.3842 202.945 47.7612 178.847 67.8827C178.847 67.8827 165.702 67.8827 158.514 84.9601C158.514 84.9601 148.176 80.4586 145.904 92.5056C145.904 92.5056 138.339 117.658 145.904 140.294C153.469 162.931 155.982 165.446 155.982 165.446C155.982 165.446 143.551 117.987 173.808 115.472C204.065 112.957 237.923 91.2481 240.444 118.915C242.966 146.582 246.76 153.399 246.76 153.399C246.76 153.399 270.709 113.885 241.715 102.566Z" fill="#2F2E41"/>
<path d="M324.182 279.505L324.026 280.445L322.284 291.006L310.242 364.059L309.53 368.36L308.034 377.455L305.988 389.863L301.452 417.359L300.154 425.239L299.668 428.195L299.498 429.232L298.151 437.388L297.742 439.85L294.454 467.816L291.583 492.186L301.191 503.217L295.463 509.793L291.703 534.519L291.71 534.576H138.257C132.049 529.96 125.931 525.2 119.902 520.297L121.164 509.445C121.164 509.445 125.51 490.064 123.683 487.747C121.863 485.431 117.87 481.293 117.87 481.293L122.9 467.816L123.598 465.945L122.427 438.06L122.399 437.388L122.011 428.195L121.961 427.013L121.884 425.239L120.395 389.863L120.367 389.279L119.916 378.556L119.492 368.36L119.309 364.059L117.496 321.029L116.269 291.808L115.196 266.369L119.506 264.692L165.607 246.704L184.703 218.204L224.447 218.544L243.903 218.714L276.367 253.28L283.753 257.33L283.81 257.362L289.107 260.27L302.539 267.632L316.739 275.423L324.026 279.416L324.182 279.505Z" fill="#CACACA"/>
<path d="M189.839 451.562C186.927 452.857 183.802 453.404 180.686 453.163C177.57 452.922 174.537 451.9 171.802 450.168C169.067 448.436 166.696 446.036 164.857 443.139C163.017 440.241 161.753 436.915 161.153 433.396L85.9829 421.152L112.114 387.215L179.491 404.045C184.707 403.281 189.987 404.741 194.328 408.147C198.67 411.553 201.773 416.67 203.048 422.527C204.324 428.384 203.684 434.575 201.249 439.926C198.815 445.277 194.755 449.418 189.839 451.562V451.562Z" fill="#FFB6B6"/>
<path d="M156.323 389.863C154.931 387.836 152.959 386.439 150.757 385.918L119.916 378.556L116.748 377.803C114.907 377.362 113.169 376.48 111.645 375.214C110.122 373.948 108.849 372.327 107.909 370.457C106.934 368.494 106.344 366.311 106.181 364.059C106.034 362.012 106.247 359.952 106.809 358.001L117.496 321.029L124.43 297.04C125.271 294.146 125.767 291.136 125.905 288.09C126.291 279.661 124.02 271.355 119.506 264.692C115.539 258.836 110.035 254.6 103.809 252.611C97.5835 250.622 90.9655 250.984 84.9329 253.645C84.7566 253.718 84.5732 253.799 84.3968 253.88C80.0706 255.863 76.2054 258.974 73.1066 262.968C70.0079 266.961 67.7606 271.727 66.5422 276.889L59.0082 308.354L43.4674 373.219C41.9117 379.718 41.5974 386.526 42.5461 393.177C43.4947 399.829 45.6838 406.166 48.9637 411.756C52.2435 417.346 56.5366 422.056 61.5491 425.565C66.5616 429.073 72.1752 431.296 78.0056 432.083L122.427 438.06L142.983 440.83C145.36 441.158 147.758 440.446 149.698 438.835C151.638 437.224 152.978 434.834 153.452 432.14C153.485 431.993 153.511 431.844 153.53 431.694L154.023 428.195L158.207 398.731L158.249 398.431C158.467 396.928 158.408 395.389 158.076 393.913C157.745 392.437 157.147 391.057 156.323 389.863Z" fill="#CACACA"/>
<path d="M237.72 452.507C240.762 453.318 243.922 453.353 246.978 452.61C250.034 451.867 252.91 450.363 255.405 448.206C257.9 446.049 259.952 443.289 261.418 440.123C262.883 436.956 263.726 433.459 263.887 429.878L336.803 405.586L306.764 376.219L242.128 403.789C236.87 403.878 231.822 406.177 227.942 410.252C224.062 414.327 221.619 419.895 221.076 425.9C220.532 431.905 221.927 437.931 224.994 442.834C228.062 447.738 232.589 451.18 237.72 452.507V452.507Z" fill="#FFB6B6"/>
<path d="M373.005 351.246L338.325 259.614C335.489 252.091 330.423 245.965 324.026 242.323C322.049 241.205 319.972 240.336 317.833 239.731C317.501 239.634 317.169 239.545 316.838 239.472C312.3 238.335 307.594 238.435 303.096 239.763C298.985 240.976 295.142 243.17 291.819 246.203C288.495 249.235 285.766 253.038 283.809 257.363C283.788 257.398 283.769 257.436 283.753 257.476C281.567 262.331 280.405 267.707 280.359 273.173C280.314 278.638 281.387 284.039 283.492 288.941L283.922 289.929L308.429 346.436C309.266 348.368 309.737 350.481 309.813 352.638C309.888 354.794 309.565 356.944 308.866 358.947C308.166 360.95 307.106 362.76 305.754 364.26C304.402 365.759 302.79 366.913 301.022 367.647L299.301 368.36L268.346 381.197C266.024 382.148 264.113 384.097 263.017 386.634C261.921 389.17 261.725 392.096 262.47 394.795L262.548 395.078L271.224 426.956C271.267 427.102 271.309 427.248 271.358 427.393C271.435 427.668 271.529 427.937 271.641 428.195C272.563 430.57 274.193 432.488 276.237 433.606C278.282 434.724 280.606 434.968 282.793 434.294L299.498 429.232L302.905 428.195L346.043 415.115C351.719 413.393 357.004 410.284 361.536 405.999C366.068 401.714 369.74 396.355 372.3 390.29C374.86 384.224 376.249 377.595 376.371 370.857C376.492 364.118 375.344 357.428 373.005 351.246L373.005 351.246Z" fill="#CACACA"/>
<path d="M31.6726 428.195C41.6689 442.193 52.4497 455.428 63.9463 467.816H382.782C385.854 467.821 388.798 469.225 390.97 471.72C393.141 474.214 394.362 477.596 394.365 481.122L394.824 573.881C414.438 563.535 432.807 550.324 449.474 534.576C454.102 530.211 458.586 525.656 462.927 520.913C465.77 517.819 468.544 514.65 471.251 511.405C491.542 487.136 507.973 458.974 519.799 428.195H31.6726Z" fill="#353535"/>
<path d="M471.251 511.405C468.549 514.652 465.774 517.822 462.927 520.913H395.057V511.405H471.251Z" fill="white"/>
<path d="M323.547 207.294C323.212 206.584 322.715 205.99 322.111 205.577C321.506 205.164 320.815 204.945 320.111 204.946H88.8412C87.8044 204.949 86.8108 205.424 86.0783 206.266C85.3457 207.109 84.934 208.25 84.9331 209.441V368.36H324.026V209.441C324.03 208.69 323.865 207.95 323.547 207.294Z" fill="#353535"/>
<path d="M84.7236 364.057V383.668C84.7236 384.481 84.8631 385.286 85.1341 386.037C85.4051 386.788 85.8022 387.471 86.303 388.046C86.8037 388.62 87.3981 389.076 88.0523 389.388C88.7066 389.699 89.4077 389.859 90.1159 389.859H178.364V428.561H177.191C177.099 428.561 177.008 428.582 176.923 428.623C176.838 428.663 176.761 428.722 176.696 428.797C176.631 428.872 176.579 428.96 176.544 429.058C176.509 429.155 176.491 429.26 176.491 429.366V432.057C176.491 432.163 176.509 432.268 176.544 432.365C176.579 432.463 176.631 432.551 176.696 432.626C176.761 432.701 176.838 432.76 176.923 432.8C177.008 432.841 177.099 432.862 177.191 432.862H231.974C232.066 432.862 232.157 432.841 232.242 432.8C232.327 432.76 232.405 432.701 232.47 432.626C232.535 432.551 232.586 432.463 232.621 432.365C232.657 432.268 232.675 432.163 232.675 432.057V429.366C232.675 429.26 232.657 429.155 232.621 429.058C232.586 428.96 232.535 428.872 232.47 428.797C232.405 428.722 232.327 428.663 232.242 428.623C232.157 428.582 232.066 428.561 231.974 428.561H230.802V389.859H319.05C319.758 389.859 320.459 389.699 321.113 389.388C321.767 389.076 322.362 388.62 322.863 388.046C323.363 387.471 323.76 386.788 324.031 386.037C324.302 385.286 324.442 384.481 324.442 383.668V364.057H84.7236Z" fill="#353535"/>
<path d="M201.686 307.771C213.883 307.771 223.771 296.419 223.771 282.416C223.771 268.413 213.883 257.061 201.686 257.061C189.489 257.061 179.602 268.413 179.602 282.416C179.602 296.419 189.489 307.771 201.686 307.771Z" fill="#39BA8C"/>
<path d="M257.955 140.113H254.428C254.428 109.499 228.038 89.4372 201.415 89.421C197.542 89.408 193.678 89.8394 189.881 90.7088C185.606 91.6888 181.169 92.8631 176.809 94.3938C159.617 100.444 143.675 112.139 143.675 140.113C143.671 145.546 144.273 150.957 145.466 156.214L142.052 157.234C140.786 151.643 140.146 145.89 140.147 140.113C140.147 115.67 148.888 98.8807 163.984 88.8703C171.92 83.6059 181.606 80.2124 192.702 78.5602C197.32 77.8549 201.988 77.6921 206.635 78.0743C237.251 80.6012 257.955 107.555 257.955 140.113Z" fill="#39BA8C"/>
<path d="M263.832 142.356L262.442 130.564C262.099 127.586 260.85 124.843 258.915 122.821C257.673 121.503 256.186 120.527 254.566 119.965C252.947 119.404 251.238 119.273 249.568 119.582L247.36 119.93C246.755 120.021 246.173 120.249 245.646 120.601C245.12 120.953 244.659 121.421 244.291 121.979C243.92 122.535 243.649 123.17 243.492 123.847C243.336 124.524 243.298 125.229 243.381 125.923L246.591 153.087C246.723 154.195 247.155 155.226 247.826 156.036C248.497 156.845 249.373 157.392 250.33 157.599C250.613 157.664 250.901 157.696 251.19 157.696C251.398 157.696 251.605 157.68 251.811 157.647L254.28 157.267C255.785 157.037 257.234 156.457 258.537 155.561C259.84 154.666 260.969 153.474 261.856 152.059C262.047 151.751 262.23 151.435 262.4 151.111C263.722 148.461 264.226 145.376 263.832 142.356Z" fill="#39BA8C"/>
<path d="M245.935 120.424C245.287 120.785 244.724 121.318 244.291 121.979C243.92 122.535 243.649 123.17 243.492 123.847C243.336 124.524 243.298 125.229 243.381 125.923L246.591 153.087C246.723 154.195 247.155 155.226 247.826 156.036C248.497 156.845 249.373 157.392 250.33 157.599L245.935 120.424Z" fill="white"/>
<path d="M263.832 142.356L262.442 130.564C262.099 127.586 260.85 124.843 258.915 122.821L262.11 149.848C262.158 150.282 262.256 150.706 262.4 151.111C263.722 148.461 264.226 145.376 263.832 142.356Z" fill="#3F3D56"/>
<path d="M252.848 150.853C253.813 150.702 254.299 148.065 253.932 144.963C253.565 141.86 252.486 139.467 251.521 139.617C250.555 139.767 250.07 142.404 250.437 145.507C250.803 148.61 251.883 151.003 252.848 150.853Z" fill="#3F3D56"/>
<path d="M250.732 136.274C251.697 136.124 252.182 133.487 251.816 130.384C251.449 127.282 250.369 124.888 249.404 125.039C248.439 125.189 247.954 127.826 248.321 130.929C248.687 134.031 249.767 136.425 250.732 136.274Z" fill="#3F3D56"/>
<path d="M264.135 141.944C265.1 141.793 265.586 139.156 265.219 136.054C264.852 132.951 263.773 130.558 262.808 130.708C261.842 130.858 261.357 133.495 261.724 136.598C262.09 139.701 263.17 142.094 264.135 141.944Z" fill="#3F3D56"/>
<path d="M201.415 89.421C197.542 89.408 193.678 89.8394 189.881 90.7088C185.606 91.6887 181.169 92.8631 176.809 94.3938C170.001 94.0132 164.993 91.9884 163.984 88.8703C171.92 83.6059 181.606 80.2124 192.702 78.5602C197.32 77.8549 201.988 77.6921 206.635 78.0743C207.127 78.4053 207.552 78.8521 207.883 79.3854C208.213 79.9186 208.442 80.5262 208.554 81.1681C208.885 83.9866 206.085 86.9832 201.415 89.421Z" fill="#3F3D56"/>
<path d="M156.38 168.217L150.948 142.292C150.754 141.356 150.324 140.507 149.712 139.852C149.099 139.196 148.332 138.763 147.505 138.606C147.272 138.565 147.036 138.543 146.8 138.542C146.467 138.543 146.136 138.589 145.812 138.679L143.71 139.262C141.003 140.014 138.667 141.968 137.214 144.695C135.76 147.422 135.308 150.699 135.957 153.808L138.391 165.439C138.947 168.177 140.27 170.629 142.158 172.42C142.464 172.703 142.784 172.966 143.117 173.206C144.3 174.056 145.619 174.627 146.997 174.883C148.374 175.139 149.782 175.075 151.138 174.696L153.233 174.113C153.787 173.964 154.309 173.686 154.764 173.295C155.442 172.728 155.957 171.942 156.245 171.038C156.532 170.133 156.579 169.151 156.38 168.217Z" fill="#39BA8C"/>
<path d="M144.992 163.393C145.939 163.131 146.19 160.451 145.552 157.407C144.914 154.363 143.629 152.107 142.682 152.369C141.735 152.63 141.484 155.31 142.122 158.355C142.76 161.399 144.045 163.654 144.992 163.393Z" fill="#3F3D56"/>
<path d="M137.938 165.823C138.885 165.561 139.135 162.881 138.497 159.837C137.859 156.793 136.574 154.537 135.627 154.799C134.68 155.06 134.43 157.74 135.068 160.784C135.706 163.828 136.991 166.084 137.938 165.823Z" fill="#3F3D56"/>
<path d="M156.725 168.119L151.294 142.194C151.082 141.182 150.615 140.264 149.951 139.556C149.287 138.847 148.456 138.379 147.562 138.21L154.976 173.619C155.708 173.003 156.265 172.152 156.576 171.173C156.888 170.195 156.94 169.132 156.725 168.119Z" fill="white"/>
<path d="M137.185 148.674C137.035 147.953 136.754 147.276 136.359 146.689C135.596 148.96 135.456 151.444 135.957 153.808L138.391 165.439C138.947 168.177 140.27 170.629 142.158 172.42L137.185 148.674Z" fill="#3F3D56"/>
</g>
<defs>
<radialGradient id="paint0_radial_311_160" cx="0" cy="0" r="1" gradientUnits="userSpaceOnUse" gradientTransform="translate(227.664 169.667) rotate(69.4901) scale(459.458 523.553)">
<stop stop-color="#191919"/>
<stop offset="1" stop-color="#5196FF" stop-opacity="0"/>
</radialGradient>
<radialGradient id="paint1_radial_311_160" cx="0" cy="0" r="1" gradientUnits="userSpaceOnUse" gradientTransform="translate(519.945 507) rotate(169.14) scale(141.537 392.129)">
<stop stop-color="#5196FF"/>
<stop offset="1" stop-color="#5196FF" stop-opacity="0.06"/>
</radialGradient>
<radialGradient id="paint2_radial_311_160" cx="0" cy="0" r="1" gradientUnits="userSpaceOnUse" gradientTransform="translate(357.838 765.333) rotate(-95.4157) scale(413.684 385.103)">
<stop/>
<stop offset="0.0001" stop-color="#39BA8C"/>
<stop offset="1" stop-color="#39BA8C" stop-opacity="0"/>
</radialGradient>
<radialGradient id="paint3_radial_311_160" cx="0" cy="0" r="1" gradientUnits="userSpaceOnUse" gradientTransform="translate(321.021 -104.333) rotate(96.8333) scale(424.683 394.56)">
<stop stop-color="#39BA8C"/>
<stop offset="1" stop-color="#39BA8C" stop-opacity="0"/>
</radialGradient>
<radialGradient id="paint4_radial_311_160" cx="0" cy="0" r="1" gradientUnits="userSpaceOnUse" gradientTransform="translate(1.0966e-05 680.333) rotate(-37.2887) scale(248.144 528.075)">
<stop/>
<stop offset="1" stop-color="#39BA8C" stop-opacity="0"/>
</radialGradient>
<radialGradient id="paint5_radial_311_160" cx="0" cy="0" r="1" gradientUnits="userSpaceOnUse" gradientTransform="translate(214.944 452.098) rotate(-61.3216) scale(197.278 168.195)">
<stop stop-color="#5196FF"/>
<stop offset="0.901042" stop-color="#3BB797" stop-opacity="0.06"/>
<stop offset="1" stop-color="#39BA8C" stop-opacity="0"/>
</radialGradient>
<radialGradient id="paint6_radial_311_160" cx="0" cy="0" r="1" gradientUnits="userSpaceOnUse" gradientTransform="translate(25.1708 27) rotate(68.082) scale(187.198 219.325)">
<stop stop-color="#5196FF"/>
<stop offset="1" stop-color="#5196FF" stop-opacity="0.31"/>
</radialGradient>
<linearGradient id="paint7_linear_311_160" x1="491.926" y1="211.714" x2="-3.09247" y2="283.423" gradientUnits="userSpaceOnUse">
<stop stop-color="#5196FF"/>
<stop offset="0.250353" stop-color="#39BA8C"/>
<stop offset="0.677092" stop-color="#5196FF"/>
<stop offset="1" stop-color="#39BA8C"/>
</linearGradient>
<clipPath id="clip0_311_160">
<rect width="600" height="600" fill="white"/>
</clipPath>
</defs>
</svg>
