<svg width="325" height="325" viewBox="0 0 325 325" fill="none" xmlns="http://www.w3.org/2000/svg">
<circle cx="162.5" cy="162.5" r="162.5" fill="#5196FF"/>
<path d="M106.219 200V131.75H127.219C133.219 131.75 138.578 133.109 143.297 135.828C148.047 138.516 151.75 142.359 154.406 147.359C157.062 152.328 158.391 157.984 158.391 164.328V167.469C158.391 173.812 157.078 179.453 154.453 184.391C151.859 189.328 148.188 193.156 143.438 195.875C138.688 198.594 133.328 199.969 127.359 200H106.219ZM120.281 143.141V188.703H127.078C132.578 188.703 136.781 186.906 139.688 183.312C142.594 179.719 144.078 174.578 144.141 167.891V164.281C144.141 157.344 142.703 152.094 139.828 148.531C136.953 144.938 132.75 143.141 127.219 143.141H120.281ZM168.656 200V131.75H192.562C200.844 131.75 207.125 133.344 211.406 136.531C215.688 139.688 217.828 144.328 217.828 150.453C217.828 153.797 216.969 156.75 215.25 159.312C213.531 161.844 211.141 163.703 208.078 164.891C211.578 165.766 214.328 167.531 216.328 170.188C218.359 172.844 219.375 176.094 219.375 179.938C219.375 186.5 217.281 191.469 213.094 194.844C208.906 198.219 202.938 199.938 195.188 200H168.656ZM182.719 170.281V188.703H194.766C198.078 188.703 200.656 187.922 202.5 186.359C204.375 184.766 205.312 182.578 205.312 179.797C205.312 173.547 202.078 170.375 195.609 170.281H182.719ZM182.719 160.344H193.125C200.219 160.219 203.766 157.391 203.766 151.859C203.766 148.766 202.859 146.547 201.047 145.203C199.266 143.828 196.438 143.141 192.562 143.141H182.719V160.344Z" fill="white"/>
</svg>
