<svg width="682" height="431" viewBox="0 0 682 431" fill="none" xmlns="http://www.w3.org/2000/svg">
<g opacity="0.4">
<rect width="562" height="288" rx="18" fill="url(#paint0_radial_316_243)"/>
<rect width="562" height="288" rx="18" fill="url(#paint1_radial_316_243)" fill-opacity="0.6"/>
<rect width="562" height="288" rx="18" fill="url(#paint2_radial_316_243)" fill-opacity="0.6"/>
<rect width="562" height="288" rx="18" fill="url(#paint3_radial_316_243)" fill-opacity="0.6"/>
<rect width="562" height="288" rx="18" fill="url(#paint4_radial_316_243)" fill-opacity="0.6"/>
<rect width="562" height="288" rx="18" fill="url(#paint5_radial_316_243)" fill-opacity="0.4"/>
<rect width="562" height="288" rx="18" fill="url(#paint6_radial_316_243)" fill-opacity="0.6"/>
</g>
<rect x="1.5" y="1.5" width="558.911" height="284.984" rx="16.5" stroke="url(#paint7_linear_316_243)" stroke-opacity="0.3" stroke-width="3"/>
<path d="M3 18C3 9.71574 9.71573 3 18 3H543.911C552.195 3 558.911 9.71573 558.911 18V30.3927H3V18Z" fill="url(#paint8_linear_316_243)"/>
<g opacity="0.9">
<circle cx="18.3078" cy="16.6963" r="4.02834" fill="#FF7B7B"/>
<circle cx="31.1984" cy="16.6963" r="4.02834" fill="#FFE353"/>
<circle cx="44.0891" cy="16.6963" r="4.02834" fill="#39BA8C"/>
</g>
<path d="M17.3022 56H15.75V50.0166L13.897 50.5913V49.3291L17.1357 48.1689H17.3022V56ZM18.8921 76H13.5317V74.9365L16.0615 72.2402C16.4089 71.8607 16.6649 71.5295 16.8296 71.2466C16.9979 70.9637 17.082 70.6951 17.082 70.4409C17.082 70.0936 16.9943 69.8215 16.8188 69.6245C16.6434 69.424 16.3927 69.3237 16.0669 69.3237C15.716 69.3237 15.4385 69.4455 15.2344 69.689C15.0339 69.9289 14.9336 70.2458 14.9336 70.6396H13.376C13.376 70.1634 13.4888 69.7284 13.7144 69.3345C13.9435 68.9406 14.2658 68.6326 14.6812 68.4106C15.0965 68.1851 15.5674 68.0723 16.0938 68.0723C16.8994 68.0723 17.5243 68.2656 17.9683 68.6523C18.4159 69.0391 18.6396 69.5851 18.6396 70.2905C18.6396 70.6772 18.5394 71.0711 18.3389 71.4722C18.1383 71.8732 17.7946 72.3405 17.3076 72.874L15.5298 74.7485H18.8921V76ZM15.1108 91.4023H15.938C16.3319 91.4023 16.6237 91.3039 16.8135 91.1069C17.0033 90.91 17.0981 90.6486 17.0981 90.3228C17.0981 90.0076 17.0033 89.7624 16.8135 89.5869C16.6273 89.4115 16.3695 89.3237 16.04 89.3237C15.7428 89.3237 15.494 89.4061 15.2935 89.5708C15.0929 89.7319 14.9927 89.9432 14.9927 90.2046H13.4404C13.4404 89.7964 13.5496 89.4312 13.7681 89.1089C13.9901 88.783 14.298 88.5288 14.6919 88.3462C15.0894 88.1636 15.5262 88.0723 16.0024 88.0723C16.8296 88.0723 17.4777 88.271 17.9468 88.6685C18.4159 89.0623 18.6504 89.6066 18.6504 90.3013C18.6504 90.6593 18.5412 90.9888 18.3228 91.2896C18.1043 91.5903 17.8179 91.8213 17.4634 91.9824C17.9038 92.14 18.2314 92.3763 18.4463 92.6914C18.6647 93.0065 18.7739 93.3789 18.7739 93.8086C18.7739 94.5033 18.5197 95.0601 18.0112 95.479C17.5063 95.8979 16.8368 96.1074 16.0024 96.1074C15.2218 96.1074 14.5827 95.9015 14.085 95.4897C13.5908 95.078 13.3438 94.5337 13.3438 93.8569H14.896C14.896 94.1506 15.0052 94.3905 15.2236 94.5767C15.4456 94.7629 15.7178 94.856 16.04 94.856C16.4089 94.856 16.6971 94.7593 16.9048 94.5659C17.116 94.369 17.2217 94.1094 17.2217 93.7871C17.2217 93.0065 16.792 92.6162 15.9326 92.6162H15.1108V91.4023ZM18.124 113.057H19.0103V114.308H18.124V116H16.5718V114.308H13.3652L13.2954 113.331L16.5557 108.18H18.124V113.057ZM14.8423 113.057H16.5718V110.296L16.4697 110.473L14.8423 113.057ZM13.7627 132.154L14.2139 128.18H18.5967V129.474H15.4868L15.2935 131.155C15.6623 130.958 16.0544 130.86 16.4697 130.86C17.2145 130.86 17.7982 131.091 18.2207 131.553C18.6432 132.015 18.8545 132.661 18.8545 133.492C18.8545 133.997 18.7471 134.45 18.5322 134.851C18.321 135.248 18.0166 135.558 17.6191 135.78C17.2217 135.998 16.7526 136.107 16.2119 136.107C15.7393 136.107 15.3006 136.013 14.896 135.823C14.4914 135.629 14.1709 135.359 13.9346 135.012C13.7018 134.664 13.5783 134.269 13.564 133.825H15.1001C15.1323 134.151 15.2451 134.405 15.4385 134.587C15.6354 134.766 15.8914 134.856 16.2065 134.856C16.5575 134.856 16.8278 134.731 17.0176 134.48C17.2074 134.226 17.3022 133.868 17.3022 133.406C17.3022 132.962 17.193 132.622 16.9746 132.385C16.7562 132.149 16.4465 132.031 16.0454 132.031C15.6766 132.031 15.3776 132.127 15.1484 132.321L14.998 132.46L13.7627 132.154ZM17.7427 148.099V149.377H17.5923C16.8905 149.388 16.3247 149.571 15.895 149.925C15.4689 150.28 15.2129 150.772 15.127 151.402C15.5423 150.98 16.0669 150.769 16.7007 150.769C17.381 150.769 17.9217 151.012 18.3228 151.499C18.7238 151.986 18.9243 152.627 18.9243 153.422C18.9243 153.93 18.8133 154.39 18.5913 154.802C18.3729 155.214 18.0614 155.535 17.6567 155.764C17.2557 155.993 16.8009 156.107 16.2925 156.107C15.4689 156.107 14.8029 155.821 14.2944 155.248C13.7896 154.675 13.5371 153.911 13.5371 152.955V152.396C13.5371 151.547 13.6965 150.799 14.0151 150.151C14.3374 149.499 14.7975 148.996 15.3955 148.642C15.9971 148.284 16.6935 148.103 17.4849 148.099H17.7427ZM16.228 152.015C15.9774 152.015 15.75 152.081 15.5459 152.213C15.3418 152.342 15.1914 152.514 15.0947 152.729V153.202C15.0947 153.721 15.1968 154.127 15.4009 154.421C15.605 154.711 15.8914 154.856 16.2603 154.856C16.5933 154.856 16.8618 154.725 17.0659 154.464C17.2736 154.199 17.3774 153.857 17.3774 153.438C17.3774 153.012 17.2736 152.668 17.0659 152.407C16.8582 152.145 16.5789 152.015 16.228 152.015ZM18.8491 169.05L15.8252 176H14.187L17.2163 169.437H13.3276V168.18H18.8491V169.05ZM18.6289 190.258C18.6289 190.638 18.534 190.974 18.3442 191.268C18.1545 191.562 17.8931 191.796 17.5601 191.972C17.9396 192.154 18.2404 192.407 18.4624 192.729C18.6844 193.048 18.7954 193.424 18.7954 193.857C18.7954 194.552 18.5591 195.101 18.0864 195.506C17.6138 195.907 16.971 196.107 16.1582 196.107C15.3454 196.107 14.7008 195.905 14.2246 195.5C13.7484 195.096 13.5103 194.548 13.5103 193.857C13.5103 193.424 13.6213 193.046 13.8433 192.724C14.0653 192.401 14.3643 192.151 14.7402 191.972C14.4072 191.796 14.1458 191.562 13.9561 191.268C13.7699 190.974 13.6768 190.638 13.6768 190.258C13.6768 189.592 13.8988 189.062 14.3428 188.668C14.7868 188.271 15.3901 188.072 16.1528 188.072C16.9119 188.072 17.5135 188.269 17.9575 188.663C18.4051 189.053 18.6289 189.585 18.6289 190.258ZM17.2378 193.744C17.2378 193.404 17.1393 193.132 16.9424 192.928C16.7454 192.724 16.4805 192.622 16.1475 192.622C15.818 192.622 15.5549 192.724 15.3579 192.928C15.161 193.128 15.0625 193.4 15.0625 193.744C15.0625 194.077 15.1592 194.346 15.3525 194.55C15.5459 194.754 15.8145 194.856 16.1582 194.856C16.4948 194.856 16.758 194.757 16.9478 194.561C17.1411 194.364 17.2378 194.091 17.2378 193.744ZM17.0767 190.333C17.0767 190.029 16.9961 189.786 16.835 189.603C16.6738 189.417 16.4465 189.324 16.1528 189.324C15.8628 189.324 15.6372 189.413 15.4761 189.592C15.3149 189.771 15.2344 190.018 15.2344 190.333C15.2344 190.645 15.3149 190.896 15.4761 191.085C15.6372 191.275 15.8646 191.37 16.1582 191.37C16.4518 191.37 16.6774 191.275 16.835 191.085C16.9961 190.896 17.0767 190.645 17.0767 190.333ZM17.1626 212.874C16.758 213.271 16.2853 213.47 15.7446 213.47C15.0535 213.47 14.5003 213.234 14.085 212.761C13.6696 212.285 13.4619 211.644 13.4619 210.838C13.4619 210.326 13.5729 209.857 13.7949 209.431C14.0205 209.001 14.3338 208.668 14.7349 208.432C15.1359 208.192 15.5871 208.072 16.0884 208.072C16.604 208.072 17.0623 208.201 17.4634 208.459C17.8644 208.717 18.1759 209.087 18.3979 209.571C18.62 210.054 18.7327 210.607 18.7363 211.23V211.805C18.7363 213.109 18.4123 214.133 17.7642 214.877C17.116 215.622 16.1976 216.02 15.0088 216.07L14.6274 216.075V214.781L14.9712 214.775C16.3211 214.715 17.0516 214.081 17.1626 212.874ZM16.126 212.283C16.3766 212.283 16.5915 212.219 16.7705 212.09C16.9531 211.961 17.091 211.805 17.1841 211.623V210.983C17.1841 210.457 17.0838 210.049 16.8833 209.759C16.6828 209.469 16.4142 209.324 16.0776 209.324C15.7661 209.324 15.5101 209.467 15.3096 209.753C15.109 210.036 15.0088 210.393 15.0088 210.822C15.0088 211.248 15.1055 211.599 15.2988 211.875C15.4958 212.147 15.7715 212.283 16.126 212.283ZM17.3022 236H15.75V230.017L13.897 230.591V229.329L17.1357 228.169H17.3022V236ZM18.7954 252.767C18.7954 253.848 18.5716 254.675 18.124 255.248C17.6764 255.821 17.0212 256.107 16.1582 256.107C15.306 256.107 14.6543 255.826 14.2031 255.264C13.752 254.702 13.521 253.896 13.5103 252.847V251.408C13.5103 250.316 13.7358 249.487 14.187 248.921C14.6418 248.355 15.2952 248.072 16.1475 248.072C16.9997 248.072 17.6514 248.353 18.1025 248.916C18.5537 249.474 18.7847 250.278 18.7954 251.327V252.767ZM17.2432 251.188C17.2432 250.539 17.1536 250.069 16.9746 249.775C16.7992 249.478 16.5234 249.329 16.1475 249.329C15.7822 249.329 15.5119 249.471 15.3364 249.753C15.1646 250.033 15.0732 250.471 15.0625 251.069V252.971C15.0625 253.608 15.1484 254.083 15.3203 254.394C15.4958 254.702 15.7751 254.856 16.1582 254.856C16.5378 254.856 16.8117 254.707 16.98 254.41C17.1483 254.113 17.236 253.658 17.2432 253.046V251.188Z" fill="#5196FF"/>
<rect x="35.2267" y="48.1174" width="32.2267" height="12.8907" rx="6.44534" fill="#39BA8C"/>
<rect x="75.5101" y="215.696" width="119.239" height="12.8907" rx="6.44534" fill="#39BA8C" fill-opacity="0.9"/>
<rect x="204.417" y="215.696" width="119.239" height="12.8907" rx="6.44534" fill="url(#paint9_linear_316_243)" fill-opacity="0.8"/>
<rect x="139.964" y="48.1174" width="80.5668" height="12.8907" rx="6.44534" fill="#39BA8C"/>
<rect x="35.2267" y="69.0648" width="80.5668" height="12.8907" rx="6.44534" fill="#39BA8C"/>
<rect x="35.2267" y="110.959" width="32.2267" height="12.8907" rx="6.44534" fill="#39BA8C" fill-opacity="0.37"/>
<rect x="115.794" y="152.854" width="88.6235" height="12.8907" rx="6.44534" fill="#39BA8C" fill-opacity="0.49"/>
<rect x="40.0608" y="131.907" width="91.8462" height="12.8907" rx="6.44534" fill="#39BA8C"/>
<rect x="35.2267" y="173.802" width="91.8462" height="12.8907" rx="6.44534" fill="url(#paint10_linear_316_243)"/>
<rect x="40.0608" y="236.644" width="41.8947" height="12.8907" rx="6.44534" fill="#39BA8C"/>
<rect x="99.6801" y="236.644" width="41.8947" height="12.8907" rx="6.44534" fill="#39BA8C" fill-opacity="0.31"/>
<rect x="32.0041" y="215.696" width="16.1134" height="12.8907" rx="6.44534" fill="#39BA8C" fill-opacity="0.45"/>
<rect x="75.5101" y="48.1174" width="56.3968" height="12.8907" rx="6.44534" fill="#5196FF" fill-opacity="0.42"/>
<rect x="123.85" y="69.0648" width="24.17" height="12.8907" rx="6.44534" fill="#5196FF"/>
<rect x="215.696" y="152.854" width="24.17" height="12.8907" rx="6.44534" fill="#5196FF"/>
<rect x="75.5101" y="110.959" width="24.17" height="12.8907" rx="6.44534" fill="#5196FF"/>
<rect x="35.2267" y="152.854" width="69.2875" height="12.8907" rx="6.44534" fill="#5196FF"/>
<rect x="136.741" y="131.907" width="43.5061" height="12.8907" rx="6.44534" fill="#5196FF"/>
<rect x="52.9514" y="215.696" width="17.7247" height="12.8907" rx="6.44534" fill="#5196FF"/>
<rect x="353.245" y="143.51" width="326.457" height="191.968" rx="16.5" stroke="#212121" stroke-width="3"/>
<rect x="354.745" y="145.01" width="323.457" height="188.968" rx="15" fill="#212121"/>
<rect x="353.245" y="143.51" width="326.457" height="191.968" rx="16.5" stroke="url(#paint11_linear_316_243)" stroke-opacity="0.3" stroke-width="3"/>
<g opacity="0.3">
<rect width="329" height="195" rx="18" transform="matrix(-1 0 0 1 681 142)" fill="url(#paint12_radial_316_243)"/>
<rect width="329" height="195" rx="18" transform="matrix(-1 0 0 1 681 142)" fill="url(#paint13_radial_316_243)" fill-opacity="0.4"/>
<rect width="329" height="195" rx="18" transform="matrix(-1 0 0 1 681 142)" fill="url(#paint14_radial_316_243)" fill-opacity="0.4"/>
<rect width="329" height="195" rx="18" transform="matrix(-1 0 0 1 681 142)" fill="url(#paint15_radial_316_243)" fill-opacity="0.4"/>
<rect width="329" height="195" rx="18" transform="matrix(-1 0 0 1 681 142)" fill="url(#paint16_radial_316_243)" fill-opacity="0.6"/>
<rect width="329" height="195" rx="18" transform="matrix(-1 0 0 1 681 142)" fill="url(#paint17_radial_316_243)" fill-opacity="0.3"/>
<rect width="329" height="195" rx="18" transform="matrix(-1 0 0 1 681 142)" fill="url(#paint18_radial_316_243)" fill-opacity="0.6"/>
</g>
<path d="M354.745 160.01C354.745 151.726 361.461 145.01 369.745 145.01H663.203C671.487 145.01 678.203 151.726 678.203 160.01V163.367H354.745V160.01Z" fill="url(#paint19_linear_316_243)"/>
<ellipse cx="363.891" cy="154.189" rx="2.58233" ry="2.69955" fill="#FF7B7B"/>
<ellipse cx="372.154" cy="154.189" rx="2.58233" ry="2.69955" fill="#FFE353"/>
<ellipse cx="380.418" cy="154.189" rx="2.58233" ry="2.69955" fill="#39BA8C"/>
<path d="M480.25 232.5C478.917 233.567 477.317 234.733 475.45 236C473.65 237.267 471.75 238.533 469.75 239.8C467.817 241.067 465.95 242.267 464.15 243.4C462.35 244.533 460.817 245.467 459.55 246.2C460.817 246.933 462.35 247.867 464.15 249C465.95 250.133 467.817 251.333 469.75 252.6C471.75 253.867 473.65 255.167 475.45 256.5C477.317 257.767 478.917 258.9 480.25 259.9C481.384 260.833 482.384 261.733 483.25 262.6C484.184 263.4 484.65 264.367 484.65 265.5C484.65 266.5 484.284 267.433 483.55 268.3C483.084 268.767 482.617 269.133 482.15 269.4C481.684 269.667 481.15 269.8 480.55 269.8C479.95 269.8 479.217 269.633 478.35 269.3C477.484 268.9 476.384 268.267 475.05 267.4C470.85 264.8 467.117 262.533 463.85 260.6C460.584 258.6 457.817 256.8 455.55 255.2C453.35 253.6 451.65 252.1 450.45 250.7C449.317 249.233 448.75 247.733 448.75 246.2C448.75 244.667 449.317 243.2 450.45 241.8C451.584 240.4 453.25 238.9 455.45 237.3C457.717 235.633 460.484 233.833 463.75 231.9C467.017 229.9 470.784 227.6 475.05 225C476.384 224.133 477.484 223.533 478.35 223.2C479.217 222.8 479.95 222.6 480.55 222.6C481.15 222.6 481.684 222.733 482.15 223C482.617 223.267 483.084 223.633 483.55 224.1C484.284 224.967 484.65 225.9 484.65 226.9C484.65 228.033 484.184 229.033 483.25 229.9C482.384 230.7 481.384 231.567 480.25 232.5ZM502.257 276.9C503.057 274.233 503.991 271.133 505.057 267.6C506.124 264 507.291 260.133 508.557 256C509.891 251.8 511.291 247.4 512.757 242.8C514.291 238.2 515.824 233.5 517.357 228.7C518.691 224.633 519.857 221.1 520.857 218.1C521.924 215.033 522.891 212.533 523.757 210.6C524.691 208.667 525.557 207.233 526.357 206.3C527.224 205.3 528.157 204.8 529.157 204.8C530.157 204.8 531.057 205.133 531.857 205.8C532.724 206.467 533.157 207.5 533.157 208.9C533.157 209.367 533.124 209.867 533.057 210.4C532.991 210.933 532.857 211.567 532.657 212.3C529.524 223.367 526.124 234.567 522.457 245.9C518.791 257.167 514.891 268.4 510.757 279.6C509.957 281.733 509.191 283.167 508.457 283.9C507.724 284.633 506.991 285 506.257 285C505.057 285 503.991 284.667 503.057 284C502.124 283.333 501.657 282.233 501.657 280.7C501.657 279.767 501.857 278.5 502.257 276.9ZM550.787 232.5C549.654 231.567 548.62 230.7 547.687 229.9C546.82 229.033 546.387 228.033 546.387 226.9C546.387 225.9 546.754 224.967 547.487 224.1C547.954 223.633 548.42 223.267 548.887 223C549.354 222.733 549.887 222.6 550.487 222.6C551.087 222.6 551.82 222.8 552.687 223.2C553.554 223.533 554.654 224.133 555.987 225C560.254 227.6 564.02 229.9 567.287 231.9C570.554 233.833 573.287 235.633 575.487 237.3C577.754 238.9 579.454 240.4 580.587 241.8C581.72 243.2 582.287 244.667 582.287 246.2C582.287 247.733 581.687 249.233 580.487 250.7C579.354 252.1 577.654 253.6 575.387 255.2C573.187 256.8 570.454 258.6 567.187 260.6C563.92 262.533 560.187 264.8 555.987 267.4C554.654 268.267 553.554 268.9 552.687 269.3C551.82 269.633 551.087 269.8 550.487 269.8C549.887 269.8 549.354 269.667 548.887 269.4C548.42 269.133 547.954 268.767 547.487 268.3C546.754 267.433 546.387 266.5 546.387 265.5C546.387 264.367 546.82 263.4 547.687 262.6C548.62 261.733 549.654 260.833 550.787 259.9C552.054 258.9 553.62 257.767 555.487 256.5C557.354 255.167 559.254 253.867 561.187 252.6C563.12 251.333 564.987 250.133 566.787 249C568.654 247.867 570.22 246.933 571.487 246.2C570.22 245.467 568.654 244.533 566.787 243.4C564.987 242.267 563.12 241.067 561.187 239.8C559.254 238.533 557.354 237.267 555.487 236C553.62 234.733 552.054 233.567 550.787 232.5Z" fill="white" fill-opacity="0.9"/>
<rect x="89.2455" y="237.51" width="326.457" height="191.968" rx="16.5" stroke="#212121" stroke-width="3"/>
<rect x="90.7455" y="239.01" width="323.457" height="188.968" rx="15" fill="#212121"/>
<rect x="89.2455" y="237.51" width="326.457" height="191.968" rx="16.5" stroke="url(#paint20_linear_316_243)" stroke-opacity="0.4" stroke-width="3"/>
<g opacity="0.4">
<rect x="88" y="236" width="329" height="195" rx="18" fill="url(#paint21_radial_316_243)"/>
<rect x="88" y="236" width="329" height="195" rx="18" fill="url(#paint22_radial_316_243)" fill-opacity="0.6"/>
<rect x="88" y="236" width="329" height="195" rx="18" fill="url(#paint23_radial_316_243)" fill-opacity="0.6"/>
<rect x="88" y="236" width="329" height="195" rx="18" fill="url(#paint24_radial_316_243)" fill-opacity="0.6"/>
<rect x="88" y="236" width="329" height="195" rx="18" fill="url(#paint25_radial_316_243)" fill-opacity="0.6"/>
<rect x="88" y="236" width="329" height="195" rx="18" fill="url(#paint26_radial_316_243)" fill-opacity="0.4"/>
<rect x="88" y="236" width="329" height="195" rx="18" fill="url(#paint27_radial_316_243)" fill-opacity="0.6"/>
</g>
<path d="M90.7455 254.01C90.7455 245.726 97.4612 239.01 105.745 239.01H399.203C407.487 239.01 414.203 245.726 414.203 254.01V257.367H90.7455V254.01Z" fill="url(#paint28_linear_316_243)"/>
<ellipse cx="99.8908" cy="248.189" rx="2.58233" ry="2.69955" fill="#FF7B7B"/>
<ellipse cx="108.154" cy="248.189" rx="2.58233" ry="2.69955" fill="#FFE353"/>
<ellipse cx="116.418" cy="248.189" rx="2.58233" ry="2.69955" fill="#39BA8C"/>
<rect x="135.17" y="326.506" width="4.83401" height="70.8988" rx="2" fill="white" fill-opacity="0.9"/>
<rect width="4.83401" height="99.9028" rx="2" transform="matrix(-1 0 0 1 185.122 297.502)" fill="white" fill-opacity="0.9"/>
<rect width="4.83401" height="82.1781" rx="2" transform="matrix(-1 0 0 1 230.239 315.227)" fill="white" fill-opacity="0.9"/>
<rect width="4.83401" height="27.3927" rx="2" transform="matrix(-1 0 0 1 275.356 370.012)" fill="white" fill-opacity="0.9"/>
<rect width="4.83401" height="61.2308" rx="2" transform="matrix(-1 0 0 1 320.474 336.174)" fill="white" fill-opacity="0.9"/>
<rect width="4.83401" height="90.2348" rx="2" transform="matrix(-1 0 0 1 365.591 307.17)" fill="white" fill-opacity="0.9"/>
<circle cx="137.587" cy="317.644" r="5.63968" fill="white" fill-opacity="0.9"/>
<circle cx="182.705" cy="288.64" r="5.63968" fill="white" fill-opacity="0.9"/>
<circle cx="227.822" cy="306.364" r="5.63968" fill="white" fill-opacity="0.9"/>
<circle cx="272.939" cy="361.15" r="5.63968" fill="white" fill-opacity="0.9"/>
<circle cx="318.057" cy="325.7" r="5.63968" fill="white" fill-opacity="0.9"/>
<circle cx="363.174" cy="296.696" r="5.63968" fill="white" fill-opacity="0.9"/>
<path d="M111 375.181C148.67 337.61 200.724 334.343 214.422 335.16C228.121 335.976 218.532 370.28 254.148 372.73C289.763 375.181 281.544 399.683 294.558 397.233C307.571 394.783 348.666 294.322 365.789 314.741C379.487 331.076 387.478 340.605 389.761 343.327" stroke="url(#paint29_linear_316_243)" stroke-width="4" stroke-linecap="round"/>
<defs>
<radialGradient id="paint0_radial_316_243" cx="0" cy="0" r="1" gradientUnits="userSpaceOnUse" gradientTransform="translate(236.508 81.44) rotate(51.0059) scale(265.771 451.327)">
<stop stop-color="#191919"/>
<stop offset="1" stop-color="#5196FF" stop-opacity="0"/>
</radialGradient>
<radialGradient id="paint1_radial_316_243" cx="0" cy="0" r="1" gradientUnits="userSpaceOnUse" gradientTransform="translate(540.144 243.36) rotate(174.935) scale(144.969 190.905)">
<stop stop-color="#5196FF"/>
<stop offset="1" stop-color="#5196FF" stop-opacity="0.06"/>
</radialGradient>
<radialGradient id="paint2_radial_316_243" cx="0" cy="0" r="1" gradientUnits="userSpaceOnUse" gradientTransform="translate(371.74 367.36) rotate(-101.595) scale(201.8 393.657)">
<stop/>
<stop offset="0.0001" stop-color="#39BA8C"/>
<stop offset="1" stop-color="#39BA8C" stop-opacity="0"/>
</radialGradient>
<radialGradient id="paint3_radial_316_243" cx="0" cy="0" r="1" gradientUnits="userSpaceOnUse" gradientTransform="translate(333.492 -50.08) rotate(104.539) scale(209.096 399.601)">
<stop stop-color="#39BA8C"/>
<stop offset="1" stop-color="#39BA8C" stop-opacity="0"/>
</radialGradient>
<radialGradient id="paint4_radial_316_243" cx="0" cy="0" r="1" gradientUnits="userSpaceOnUse" gradientTransform="translate(1.13921e-05 326.56) rotate(-19.3841) scale(217.415 300.54)">
<stop/>
<stop offset="1" stop-color="#39BA8C" stop-opacity="0"/>
</radialGradient>
<radialGradient id="paint5_radial_316_243" cx="0" cy="0" r="1" gradientUnits="userSpaceOnUse" gradientTransform="translate(223.295 217.007) rotate(-40.188) scale(128.742 128.518)">
<stop stop-color="#5196FF"/>
<stop offset="0.901042" stop-color="#3BB797" stop-opacity="0.06"/>
<stop offset="1" stop-color="#39BA8C" stop-opacity="0"/>
</radialGradient>
<radialGradient id="paint6_radial_316_243" cx="0" cy="0" r="1" gradientUnits="userSpaceOnUse" gradientTransform="translate(26.1486 12.96) rotate(48.95) scale(110.537 185.214)">
<stop stop-color="#5196FF"/>
<stop offset="1" stop-color="#5196FF" stop-opacity="0.31"/>
</radialGradient>
<linearGradient id="paint7_linear_316_243" x1="508.5" y1="102.5" x2="36.5" y2="252" gradientUnits="userSpaceOnUse">
<stop stop-color="#5196FF"/>
<stop offset="0.250353" stop-color="#39BA8C"/>
<stop offset="0.677092" stop-color="#5196FF"/>
<stop offset="1" stop-color="#39BA8C"/>
</linearGradient>
<linearGradient id="paint8_linear_316_243" x1="57.5" y1="67.0001" x2="508" y2="-8.99989" gradientUnits="userSpaceOnUse">
<stop stop-color="#39BA8C" stop-opacity="0.13"/>
<stop offset="1" stop-color="#5196FF" stop-opacity="0.08"/>
</linearGradient>
<linearGradient id="paint9_linear_316_243" x1="264" y1="229" x2="264" y2="217.5" gradientUnits="userSpaceOnUse">
<stop stop-color="#5196FF"/>
<stop offset="1" stop-color="#39BA8C"/>
</linearGradient>
<linearGradient id="paint10_linear_316_243" x1="81" y1="175.5" x2="83.5" y2="188.5" gradientUnits="userSpaceOnUse">
<stop stop-color="#39BA8C"/>
<stop offset="1" stop-color="#5196FF"/>
</linearGradient>
<linearGradient id="paint11_linear_316_243" x1="648.871" y1="211.689" x2="367.933" y2="288.95" gradientUnits="userSpaceOnUse">
<stop stop-color="#5196FF"/>
<stop offset="0.250353" stop-color="#39BA8C"/>
<stop offset="0.677092" stop-color="#5196FF"/>
<stop offset="1" stop-color="#39BA8C"/>
</linearGradient>
<radialGradient id="paint12_radial_316_243" cx="0" cy="0" r="1" gradientUnits="userSpaceOnUse" gradientTransform="translate(138.454 55.1417) rotate(55.0081) scale(170.719 278.497)">
<stop stop-color="#191919"/>
<stop offset="1" stop-color="#5196FF" stop-opacity="0"/>
</radialGradient>
<radialGradient id="paint13_radial_316_243" cx="0" cy="0" r="1" gradientUnits="userSpaceOnUse" gradientTransform="translate(316.206 164.775) rotate(174.146) scale(84.9778 129.089)">
<stop stop-color="#5196FF"/>
<stop offset="1" stop-color="#5196FF" stop-opacity="0.06"/>
</radialGradient>
<radialGradient id="paint14_radial_316_243" cx="0" cy="0" r="1" gradientUnits="userSpaceOnUse" gradientTransform="translate(217.62 248.733) rotate(-100.06) scale(135.937 231.634)">
<stop/>
<stop offset="0.0001" stop-color="#39BA8C"/>
<stop offset="1" stop-color="#39BA8C" stop-opacity="0"/>
</radialGradient>
<radialGradient id="paint15_radial_316_243" cx="0" cy="0" r="1" gradientUnits="userSpaceOnUse" gradientTransform="translate(195.229 -33.9083) rotate(102.639) scale(140.445 235.813)">
<stop stop-color="#39BA8C"/>
<stop offset="1" stop-color="#39BA8C" stop-opacity="0"/>
</radialGradient>
<radialGradient id="paint16_radial_316_243" cx="0" cy="0" r="1" gradientUnits="userSpaceOnUse" gradientTransform="translate(6.66901e-06 221.108) rotate(-22.1435) scale(129.623 199.808)">
<stop/>
<stop offset="1" stop-color="#39BA8C" stop-opacity="0"/>
</radialGradient>
<radialGradient id="paint17_radial_316_243" cx="0" cy="0" r="1" gradientUnits="userSpaceOnUse" gradientTransform="translate(130.719 146.932) rotate(-44.3331) scale(80.4919 81.4766)">
<stop stop-color="#5196FF"/>
<stop offset="0.901042" stop-color="#3BB797" stop-opacity="0.06"/>
<stop offset="1" stop-color="#39BA8C" stop-opacity="0"/>
</radialGradient>
<radialGradient id="paint18_radial_316_243" cx="0" cy="0" r="1" gradientUnits="userSpaceOnUse" gradientTransform="translate(15.3076 8.775) rotate(53.0233) scale(70.651 114.859)">
<stop stop-color="#5196FF"/>
<stop offset="1" stop-color="#5196FF" stop-opacity="0.1"/>
</radialGradient>
<linearGradient id="paint19_linear_316_243" x1="386.456" y1="187.899" x2="650.378" y2="149.241" gradientUnits="userSpaceOnUse">
<stop stop-color="#39BA8C" stop-opacity="0.13"/>
<stop offset="1" stop-color="#5196FF" stop-opacity="0.08"/>
</linearGradient>
<linearGradient id="paint20_linear_316_243" x1="384.871" y1="305.689" x2="103.933" y2="382.95" gradientUnits="userSpaceOnUse">
<stop stop-color="#5196FF"/>
<stop offset="0.250353" stop-color="#39BA8C"/>
<stop offset="0.677092" stop-color="#5196FF"/>
<stop offset="1" stop-color="#39BA8C"/>
</linearGradient>
<radialGradient id="paint21_radial_316_243" cx="0" cy="0" r="1" gradientUnits="userSpaceOnUse" gradientTransform="translate(226.454 291.142) rotate(55.0081) scale(170.719 278.497)">
<stop stop-color="#191919"/>
<stop offset="1" stop-color="#5196FF" stop-opacity="0"/>
</radialGradient>
<radialGradient id="paint22_radial_316_243" cx="0" cy="0" r="1" gradientUnits="userSpaceOnUse" gradientTransform="translate(404.206 400.775) rotate(174.146) scale(84.9778 129.089)">
<stop stop-color="#5196FF"/>
<stop offset="1" stop-color="#5196FF" stop-opacity="0.06"/>
</radialGradient>
<radialGradient id="paint23_radial_316_243" cx="0" cy="0" r="1" gradientUnits="userSpaceOnUse" gradientTransform="translate(308.5 493.5) rotate(-100.575) scale(145.078 247.21)">
<stop/>
<stop offset="0.0001" stop-color="#39BA8C"/>
<stop offset="1" stop-color="#39BA8C" stop-opacity="0"/>
</radialGradient>
<radialGradient id="paint24_radial_316_243" cx="0" cy="0" r="1" gradientUnits="userSpaceOnUse" gradientTransform="translate(283.229 202.092) rotate(103.773) scale(210.975 354.237)">
<stop stop-color="#39BA8C"/>
<stop offset="1" stop-color="#39BA8C" stop-opacity="0"/>
</radialGradient>
<radialGradient id="paint25_radial_316_243" cx="0" cy="0" r="1" gradientUnits="userSpaceOnUse" gradientTransform="translate(88 457.108) rotate(-22.1435) scale(129.623 199.808)">
<stop/>
<stop offset="1" stop-color="#39BA8C" stop-opacity="0"/>
</radialGradient>
<radialGradient id="paint26_radial_316_243" cx="0" cy="0" r="1" gradientUnits="userSpaceOnUse" gradientTransform="translate(218.719 382.932) rotate(-44.3331) scale(80.4919 81.4766)">
<stop stop-color="#5196FF"/>
<stop offset="0.901042" stop-color="#3BB797" stop-opacity="0.06"/>
<stop offset="1" stop-color="#39BA8C" stop-opacity="0"/>
</radialGradient>
<radialGradient id="paint27_radial_316_243" cx="0" cy="0" r="1" gradientUnits="userSpaceOnUse" gradientTransform="translate(103.308 244.775) rotate(53.0233) scale(70.651 114.859)">
<stop stop-color="#5196FF"/>
<stop offset="1" stop-color="#5196FF" stop-opacity="0.31"/>
</radialGradient>
<linearGradient id="paint28_linear_316_243" x1="122.456" y1="281.899" x2="386.378" y2="243.241" gradientUnits="userSpaceOnUse">
<stop stop-color="#39BA8C" stop-opacity="0.22"/>
<stop offset="1" stop-color="#5196FF" stop-opacity="0.15"/>
</linearGradient>
<linearGradient id="paint29_linear_316_243" x1="250.381" y1="312.004" x2="250.381" y2="397.405" gradientUnits="userSpaceOnUse">
<stop stop-color="#5196FF"/>
<stop offset="1" stop-color="#51EAFF"/>
</linearGradient>
</defs>
</svg>
