<svg width="45" height="45" viewBox="0 0 45 45" fill="none" xmlns="http://www.w3.org/2000/svg">
<path d="M22.5 0C16.5001 0 12.7499 5.0001 11.25 15C13.5 9.9999 16.1249 8.1249 19.125 9.375C20.8366 10.0881 22.06 12.1579 23.4142 14.4486C25.6203 18.1808 28.1733 22.5 33.75 22.5C39.7499 22.5 43.5001 17.4999 45 7.5C42.75 12.5001 40.1251 14.3751 37.125 13.125C35.4134 12.4119 34.19 10.3421 32.8358 8.05137C30.6297 4.31924 28.0767 0 22.5 0ZM11.25 22.5C5.25006 22.5 1.49994 27.5001 0 37.5C2.25 32.4999 4.87494 30.6249 7.875 31.875C9.58658 32.5881 10.81 34.6579 12.1642 36.9486C14.3703 40.6808 16.9233 45 22.5 45C28.4999 45 32.2501 39.9999 33.75 30C31.5 35.0001 28.8751 36.8751 25.875 35.625C24.1634 34.9119 22.94 32.8421 21.5858 30.5514C19.3797 26.8192 16.8267 22.5 11.25 22.5Z" fill="url(#paint0_linear_136_57)"/>
<defs>
<linearGradient id="paint0_linear_136_57" x1="-1.2501" y1="14.4" x2="45" y2="30.4002" gradientUnits="userSpaceOnUse">
<stop stop-color="#17BCB8"/>
<stop offset="1" stop-color="#0ED7B5"/>
</linearGradient>
</defs>
</svg>
